<svg id="Peru" xmlns="http://www.w3.org/2000/svg" viewBox="0 0 367.26 540.5"><defs><style>.cls-1{fill:none;stroke:#000;stroke-linecap:round;stroke-linejoin:round;stroke-width:0.5px;}</style></defs><path class="cls-1" d="M559.44,544.68l-3.71,3.63-1.32.91-1.31.22-1.36-.19-1.22.07-.92,1-.23,1.29.33,1.06.5,1.06.26,1.29,0,.77.16.51.64,1.11.24.59.07.57-.09.58-1.75,4-.63,1-.53.58-1.14,1-1.38,1.65-.5.42L545,568h-.85l-.69.24-2.06,1.17-.72.21-1.5.16-3.1-.3-1.49.1-.74.4-.72-.65-1.44-.93-1.79-1.3-.9-.58-1-.57-1.06-.58-1.42-.76L524,563.22l-.1-.14-.16-.32-.16-.19-.13-.08-.3,0-.16-.07-1.68-1.56-.51-.31-1-.3-.37-.34-.39-1.19-.28-.61-.41-.27-.46-.19-1.23-.94-.58-.32-1.71-.56-.59-.08-1.49-1.47-.63-.39-.39-.36-.08-.09h0l.34-.51L512,552l.16-.26.19-.23.28-.28,1.07-.84,1.13-.69,2.58-1.06.38-.13.48-.24.21-.21.2-.3.51-1.46.23-.35.32-.38,1.16-1.11.18-.21.24-.35.35-.64.18-.45.13-.41.28-1.4.12-.3,1.24-1.55.52-.8.29-.64.32-.53.22-.27.4-.3.51-.26.65-.2,1.44-.63,2.34-2.68.85-1.17.29-.5.05-.4v-.41l-.08-.39-.24-.59v-.05l0-.09-.14-.73.07-.61.15-.47.35-.84.11-.41,0-.41.16-.36.19-.3.66-.75.72-.45.42-.11h.56l.55.08.68.32.29.21.24.38.72,1.75.26.37.31.3.39.2.45.08h.42l.75-.51.63-1.59.56,1.34,1.87,2.83,1.6,3,.65.92.22.13.24,0h0l.06,0,.09,0,.14.08.64.49,1,.92.6.46.15.05.26.06.12,0,.24.1.31.18.88.61.23.12.18,0h.17l.45-.16.21-.09.14,0,.19,0,.29,0,.17.08.11.11.27.59.11.2.48.6.21.17.22.09h.39l1-.19.32-.14H555l1.49.2.46.16,1.17.94.57.6.42.54.33.9.08,1.07,0,2.17Z" transform="translate(-216.37 -29.75)"/><path class="cls-1" d="M557.49,348.57l.1.18.1.18.11.18.1.18.11.19.1.18.1.18.11.18,3,5.35,3,5.35,3,5.36,3,5.36,3,5.36,3,5.37,3,5.37,3,5.37.72,1.28.15.27-.29.13-.17.27-.18.59-.24.45-.33.44-.41.38-.87.47-.4.33-.27.43,0,.49.27.28.94.26.29.33-.67,1.33-.22.26-2.39.66-.59.4-.45.62-.37.83-.63-.08-.35.55-.31.72-.92.72-.16.67v1.27l.35,2.93h0l-18.28,9.25-.47.12-.79-.16-19.5-9.73-.47-.1-.53.4-.95-.23-.94-.09-1.55.17-1.35-.3-.91-.06-.43.07-.29.16-.15.41.16.38.29.33.36.27.73.46.23.3v.36l-.36.3-.58.24-3.62.22-8.12-1.47-.79,0-.95-.09-.45-.14L511.66,409l-.47-.23-4.41-1.22-3-1.18-.54-.29-.7-.53-.31-.15-.38-.1h-.6l-1.5.15h-.52l-.63-.07-5.42-1.73-.77-.36-.88-.64-.47-.78-.71-1.5-.3-.46-.21-.5v-.76l.13-.52.49-1.31,0-.68-.2-1-.42-1.39-1-2.25-.65-1.35-.23-.38-.34-.41-.31-.2-.28-.11-.39-.1-.43,0-.86-.16-.82-.37-.35-.3-.29-.38-.27-.47-.8-3.07-.25-.63-.31-.5-.4-.29-2.07-1-2.36-1.51-.53-.51-.1-.14-.07-.14-.1-.28-.5-2.49v-.44l.21-1.1.28-.82.38-1.86.12-1.14.51-1.61,3.77-7.11.49-1.54.13-1.81v-.7l.1-.87.19-.61.31-.74,2.14-3.84.09-.46,0-.38-.24-.49-1.58-2,0-.34,0-.29.29-.31.52-.2,1.06.06.62.16.5.22,1.2.93.23.12.72.17,4-.16.67-.14.3-.1,12.86-6.7,2.5-.75.57-.24,1.14-.71,1.65-1.39,1.5-.94,1.78-1.47.51-.31.71-.55,2.77-3.33.9-1.38.37-1,.24-1,.27-4.09.15-.66.4-1.31.45-.56.9-.88,3.83-2.83h0v31.09l2.49-2,.62-.14.78.68,1.3,1.55.73.68,1.33.66,1.46.24,1.5-.07,1.44-.29,1.18-.41,7-3.6,1.21.06.55.17.57,0,1.17-.08.78.05.5.22,1.09.7,1,.2,3.6-.38Z" transform="translate(-216.37 -29.75)"/><path class="cls-1" d="M392.1,32.26l.44-.15.46-.36.36-.43.14-.37.1-.56.28-.29.44-.1.58.06,1.31.36.61.31.55.43,1.14,1.57.34.32.24.09h.51l.27.08.18.14,1.19,1.29.38.3.62.27,1,.21.49.17.29,0,.32-.25.72-1.16.35-.08.61.53.41.59,1,2-.8.61-.23.39.52.17.29,0,.58.14.72.07.18.09.12.13.2.15.15.14.09.14.17.11.4,0,.15-.07.18-.14.24-.14.31-.06.28.22.82,1.37L413,41.89l.76.6,1.76,1.06.34.3.38.42.25.41.16.07H417l.15.13.06.29,0,.32h0l.06.26,1.39,3-.07.2-.38.32-.13.25v.55l.2.43,1,1.08.2.14.28.08h.5l.22.1-.22.47.17.34.29.3.16.37-.17.32h-.41l-.46-.08-.36.06-.2.34.18.27.72.48.29.39.41,1.31.65.85.77.42,1.73.32,1.76.67.79,0,.45-.85.33.31.68,2,.14.25.24.2.35.15.17,0,.15-.15.32-.15.1-.12.1-.19.15-.08.24.21,0,.24-.27.51,0,.24.4.21.9-.2.48.17.17.27.45,1.15.52.82.28.3.4.27.78.27.46.1H435l.49-.28.46-.73.44-.16.24.52.41.44.55.31.67.11.32.1.55.4.69.2.15.26.07.32.21.45.05.32.05.13.11,0,.39-.06.11,0,.09.21.06.24,0,.63.06.2.13.23.17.19.45.21-.14.31-.45.55.26.44,1.08.5.32.51.61.45.23.31.05.29v.31l0,.38.3,1.21,0,.55-.7.42-.25.44-.33,1-.06,1.12.58.72,1.87,1.15,0,.1.1.39,0,.1.14,0,.31,0,.42,0h.32l.35,0,.36.24.7.63.29,0,.22-.32.47-.45.45-.06,1,.25.18-.09.12-.77h.3l.77.87.28.2.27.12.24.15.2.32-.22,1.08.16.4.68.81.17.48-.06.27-.29.73,0,.4.11.46.19.38.51.75.19.54.16.66.23.61.39.37-.86,1.4-.27.63-1.05,1-.26.32-.1.19,0,.29.06.28.28.44.06.18.09.14.4.31.09.15.14.87.07.22.48.32,1.26.32.26.25.18.62.38-.34.34-.66.07-.31,2,1.09.09.17.42.37.5,1.34.27.48.23.19h.27l1.23-.24.4-.15.34-.33.83-.29.72-.36.48.17.77.54.07-.36.14-.27.24-.21.36-.17.14.21.12.25.08.3.1.76.17.06.48-.16.37-.34.76-1.58.37-.47.53.08.51.28L471,98.25l.55.17,3,.47.26.23.15.35.39.35.51.27.54.12.65,0,1.15-.3.68-.08.25-.07.08-.21,0-.59.15-.12.75-.16.29,0,1.87.43.43-.13,1.28-1.47.81-.7.81-.32h.94l1.82.26.51-.13.36-.36.13-.64.21-.22,1.37-1.07,1.05-1.6.14-.3.29,0L494,91.27l.63-.29.22.15,0,1,.25.49.56-.09,1-.5.68.12.58.34.53.42.6.32,1.67.35.33.25.14.54,0,1.21.2.45.46.22.22-.34.29-1.09.4-.42.3.11.5.9.69.87.11.3-.08.25-.4.36-.12.22.33.61,1-.21,2.07-1,.23.4.54-.13.6-.32.43-.17.32.08.35.25.31.11.31-.07.54-.43.82-.41.56-1.38.66-.31.81-.14H514l.74.44.36.08.34,0,.26-.15-.27-.74-.06-.66.31-.4.83,0,1.23.52.72.14.6-.27.88.54,1.51,1.6,1,.66,1.06.38.54.13.75.09.15.15L525,97v.85l.11.05.92.76.17.32,0,.29v.4l0,.36.2.15h1.2l.22-.12,0-.27,0-.33.08-.27.5-.32.38.24.36.42.45.22.48.07.55.16.51.26.36.3.17.32.11.3.16.24.34.17.3,0,.68-.3.32-.08h.62l.62.06.37.29-.14.63-.14.09-.5.18-.13.14v.25l.14.26.19.22.14.08.71-.19.58-.35.56-.19.63.32.37.53.41,1.23.32.52.54.21.48-.23.49-.14.58.45.08.29v.3l.05.25.27.15.25-.06.16-.24.13-.31.17-.27.59-.39.31.21.37,1.28.19.43.24.35.33.26.16,0v0l-.65,1-2.28,3.55L538.58,116l-2.27,3.55L534,123.12l-2.27,3.56-2.28,3.55-2.27,3.55-2.27,3.56-1,1.52,1.27.14,3.93,2.06.31.22,1.55.38h.77l.74-.32,1.14-1,.63-.38.81-.09,1.12.39,1.08.8,1,1,.69,1,.36,1,.17,1.05.3.95.78.78,2.93,1.5.87.71.59.68.5.75.81,1.62.07.8-.27.78-.51.69-1,.7-.41.06-.4-.11-.36-.25-.36-.36-.16-.21-.13-.73-.32-.52-.57-.22-.65.06-.53.28-.38.54-.47,1.1-.56.48-.32-.41-.23-.46-.19-.27-.23-.06h-.25l-.28-.08-1.43-1.13-.29-.39,0-.52.26-1.1,0-.59-.22-.43-.35-.38-.36-.11-.53.84-.36-.11-.72-.64-.48-.2-.43,0-.41.09-.46.22-1.18.95-.44.14-.3-.18-.09-.43-.14-.42-.45-.18-.46.24-.2.49-.12.53-.25.31-1.37-.81,0-.43.1-.54,0-.42-.45-.1-.47.19-.27.33-.32.88-.31.25h-.53l-1.8-.49-.3,0-1.38.68-.37.33-.09.39.24.71-.08.27-.45.15-.45.22-.22.43-.15.52-.29.48-.87.84-.36.47-.27.56-.59.61-.61-.55-.46-.55-.13.65-.56.47-1.52-.63-.71.28-.39.65-.26.16-.45-.07-.24-.22-.31-.66-.19-.18-.48.27-.42.68-.39.44-.8-.89-.67-.13-.68.15-.47.41-.08.35.06.28v.31l-.29.37-.09,0-.17-.08-.19,0-.18.09-.26.35-.1.09-.4.17-.23-.17-.19-.31-.27-.23-.4,0-1.34.2h-.88l-.43.06-.4.17-.2.25-.18.64-.16.17h-.22l-.73-.15-.41,0-1.32.58.11-.62-.29.09-.59.58-.37.13-.25,0-.23-.12-.3-.29-.46-.35-.3.09-.33.24-.56.08-.32-.1-.67-.31-.3,0-.24.12-.08.19,0,.2-.11.13-.2.06-2.39.26-.5.14-.75.53-1.37,1.33-.85.27-.48.41-.27.18L486,163l-.29-.11-.26-.13-.25,0L485,163l-.52,1.06-.33.42-.55.46-1.61.89-1.46,1.1-.52.3-.53.18-.38,0-1.09-.16-.35.09-.14.19-.08.22-.15.15-1.2.33-.31.34-.21,1.59-.31.47-.47.33-.63.34-.15,0h-.4l-.14.05-.09.16v.34l0,.11-.15.27-.09.25-.18.17h-.42l-.55.08-.52.23-.45.35-.71.77-.8.38-.38.37-.12.31,0,.28-.08.27-.28.25-.27.08h-1.56l-.6-.18-.55-.06-.36.28-.37.48-.5.22-1.19.23H463l-.37-.12h-.14l-.09.15,0,.42,0,.12-.41.22-.22,0-.39,0-.69.18-.12.43.2.51.27.43.16.45.15,1.78-.05.46-.25.41-.32.39-.22.42-.19,1.25-.12.46-.86,1.79-.26,1,.12,1,.26.93v.82l-.47,2.69-.3.86-.41.8-3,4-1,.92-1.66,3.68-.63,1-.46,1.09V207l.27.71,1.4,1.59.16.5.3,2.34.17.67.64,1.32.2.68v.63l-.14.65-.47,1.19-.68,1.21-.8.82-1,.54-1.31.34-2,0-.63.22-1,.92-1.13.7-2,1.7-2.34,1.35-1.45,1.17-.81.48-.38.33-.34.74-.29.36-1.21.76-.32.35-.17.48-.07,1.61-.71,2.65-.41.83-.17.72.16.44.1.25,2,2.88.29,1.24.24.55.09.53-.34.59-.48.28-.56.09-1.15,0-.74,0-.51.17-1,.64-.65.24-.53,0-1.18-.45h-.63l.1.52.84,1.43.18.74-.17.48-.22.45,0,.63-.37.64-.38.16h0l-.06,0-.28-.31-.37-.31-.34-.22-1.33-.65-4.73-1.77-1.48-.38-.75-.11-2,0L417,243.8l-2.78-1.71-1.12-.17-.47,0-.4.18-.32.37-.26.65v.55l.13.46.21.41.27.8.7,3.93,0,1.05-.11,1.83.46,2.65-.11,2.6-.07.48-.17.43-.28.4-.39.39-.53.35-1.83,1-.75.26-6.58,1.12-2.37.8-1,.48-1.66,1.17-.57.29-.74.29-1.39.31-3.64,0-.48-.27-.36-.13-.29,0-.38.35-.27.57-.15.48-.07.45-.14.39-.25.36-.26.21-.7.06-.36,0-.33.05-.44.15-.54.38-.39.37-.29.56-.09.52v.61l.3,1.12.19.4.5.73,1.51,1.78.21.39.11.45-.12.4-.38.26h-.64l-.62-.23-.43-.23L384,273.6l-.35-.25-.41-.21-.47-.12-.61,0-.51.22-.43.46-.3.47-.43.52-.55.5-2,1.34-.92.79-.88,1-1.18,1-2.93,1.37.62-2.26.8-2.81.26-1.6.26-1.47.18-.55.21-.45,2.76-3.35.26-.4.2-.43.15-.5v-.73l-.12-1-1-2.95-7-15-.63-1.89-.35-1.48-.19-1.67.4-6.42-.08-1-.19-.62-.2-.46-.26-.81,0-.22,0-.24.49-1.59,1.45-3.1.93-1.4.59-.48.39-.18.61-.19.61-.08H374l.72.12,1.11.31.58.26.88.56.73.6,2.51,3.17.33.3.38.19.44.05.42-.07.4-.2.31-.26L383,230l.58-1.17,1.49-2.22.2-.38.13-.36.55-2.35,0-.29-.06-1.09.85-8.38,0-.37,0-.37-.11-.36-.18-.41-.57-1-.24-.31-2-2-.88-.53-1.81-.72-1.58-.39-3.56-.75-1.89-.12-2.66.19-1.17.25-.58,0-.64-.05-1.05-.37-.6-.32-.5-.38-2.29-2.36-.7-1-.66-.77-.42-.31-.47-.25-.61-.13-.49,0-.87.28-4.24,3-.8.39-.86.2-.55,0-.59,0-.81-.27-.55-.24-.85-.58-.91-1-.69-1.33-.93-2.93-.46-.91-.81-1-1.49-1.12-.75-.46-.66-.32-1-.31-6-.29-.83-.19-1.14-.6L333.77,192l-.7-.77-.26-.37-1.1-1-1.85-1-3.41-1.32-.77-.45-1.28-1-.61-.73-2.05-4.55-.65-2.76-.4-4.15-.34-1.48-.31-.83-.12-.45-.07-.56,0-.78.12-1.52.23-1,.69-1.75.49-.78.54-.69.56-.59.43-.37.18-.23.75-1.25.87-2.05.66-1.19.23-.54.2-.86.13-2.09-.08-1.84.33-5,.23-1.1.43-.84.05-.36-.14-.42-.17-.37-.19-.79-.25-1.89-.13-.46-.28-.67-.22-.39-1.26-1.77-.14-.3-.12-.42-.12-.59-.06-.76,0-1,.1-.71v-.39l-.08-.42-.58-1.78-.33-2.62-.32-1.1-.83-2-1.44-2.51-.1-.4-.08-.49-.09-2.41-.11-.55-.66-2.25-.45-3.16v0l.8-.28,3.64-1.28,3.65-1.27,3.64-1.28,3.65-1.27,3.64-1.28,3.65-1.28,3.64-1.27,3.65-1.28,2.67-.93.43-.26,1.29-.78,1.64-1.26,1.73-1.33,1.73-1.32L360,97.5l1.73-1.32,1.73-1.33,1.73-1.32L367,92.2l1.73-1.32,1.44-1.69,1.45-1.68L373,85.82l1.45-1.69,1.44-1.69,1.45-1.68,1.45-1.69,1.45-1.69L381.43,76,383,74.55l.46-.56.23-.27.37-1,.43-1.68.87-3.42.87-3.42.87-3.41.87-3.42.37-1.43.18-.26.82.76.39.45.17.29.29.24h.66l1.23-.14h1.37l.26,0v-.2l-.21-.28-.28-.25-.22-.33-.05-.27,0-.5v-.26l-1.28-4.37v-.36l.18-.52.06-.3v-.3l-.13-.53,0-.28.13-.35.31-.2.35-.18.26-.28.06-.26,0-.22-.07-.21,0-.24.09-1.13-.11-.54-.33-.52-.13,0-.27.14-.15,0-.11-.14-.15-.33-.12-.13L390.37,43l-.12-.17-.17-.1-.36,0-.29-.05-.33-.2-.54-.51-.83-1.14-.54-1.23-.93-3.27-.33-.43-.46-.29-.62-.2-.36-.18-.6-.58-.36-.21-.28,0-.62.05-.27-.06-.27-.3-.28-.57-.14-.64.16-.5.43-.14.52.13.53.22.45.08.52,0h.41l.39.09,2,1.1.75.07.78-.52.24,0,1,.14.46,0,.39-.13.37-.18.66-.47Z" transform="translate(-216.37 -29.75)"/><path class="cls-1" d="M302.46,131.52l.38-1.18.22-1.25,0-.32-.18-.57,0-.19.32-.55.49-.14.61.08,1.25.35.36.29.22.44.4,1.86.28.53.39-.19.46-.37.52-.11.44-.19.27-.6-.06-.79-.36-.42-.46-.33-.34-.52v-.64l.34-.41,1.05-.79.36-.51.9-1.72.41-.45,1.4-1.16,2.93-3.93,2.13-1.87.55-.28,1.12-.39v0l.45,3.16.66,2.25.11.55.09,2.41.08.49.1.4,1.44,2.51.83,2,.32,1.1.33,2.62.58,1.78.08.42v.39l-.1.71,0,1,.06.76.12.59.12.42.14.3,1.26,1.77.22.39.28.67.13.46.25,1.89.19.79.17.37.14.42-.05.36-.43.84-.23,1.1-.33,5,.08,1.84-.13,2.09-.2.86-.23.54-.66,1.19-.87,2.05-.75,1.25-.18.23-.43.37-.56.59-.54.69-.49.78-.69,1.75-.23,1-.12,1.52,0,.78.07.56.12.45.31.83.34,1.48.4,4.15.65,2.76,2.05,4.55-1.1.93-.83,1.2-.18.5-.09.38v.41l.47,2.81,0,.5-.05.64-.15.41-.54.84.28,1.25,2.76,5.1.75,1.82.71,1,.45.43.81.45,1.17.32,3.71,1,1.5.6,1,.5.52.4.62.72.73,1.17.34.74.17.6.75,2.21,0,.93-.74,1-2.55,2.17-.56.6-.37.48-.18.44-.25.91-.2.55-.36.72-.49.45-.55.29-2,.52h-.48l-.81-.1-.6,0-1.55.16-.49,0-.49-.13-.43-.2-.84-.51-.8-.39-.55-.09-.77.46-.22.32-.22.47-.19,1V224l-.33,2.83-.81,2.55-.11.91,0,.65.15.46.24.38.24.28.48.36-1.64.21-.66,0-.89-.3-.62-.12-.5,0-.46.09-.65.24-1.25.24-.56.2-.37-.37-.08-.31-.07-.73-.34-.79.09-.63.17-.63.05-.53-.13-.25-.39-.4-.08-.15.1-.3.2-.13.2-.08.1-.18,0-1.32-.12-.58-.24-.6-1.59-2.64-1.18-3.15-.33-.5-.79-.72,0-.16-.31-.78-.15-.25-.42-.28-1.38-.52-.87-.76-1.65-.83-.72-.77L302.05,211l-1-1.59-.42-1.18-.27-.5-.77-.54-1.34-.8-.61-.64-.37-.18-.18,0-.37,0-.27,0-.4-.08-.4-.23-.21-.16-.12-.15-.06-.14-.12-.47-.06-.15-.15-.24L293,202l-.24-.35-.48-1.09-.15-.25-.19-.41-.14-.22-.59-.73-.23-.44-.06-.86,0-.38.19-.58.09-.2.09-.14.11-.12.15-.09.27-.12.07,0,.09-.08.33-.5,0-.2-.06-.14-.13-.08-.34-.13-.07-.08,0-.1,0-.22.06-.14.12-.1.39-.14.09-.09.12-.16.65-1.05.06-.07,1.46-2.23.14-.16.16-.12.48-.54.28-.53.1-.25v-.19l-.06-.29-.08-.21,0-.53.17-2.61-.41-3-.11-1-.57-1.53-.12-.51,0-.5.05-.52.16-.75.7-2.16.17-.23.51-.37.23-.3.23-.54.06-.43v-.48l-.22-1.58-.11-.36-.4-.79-.68-.92-.37-1.15-.52-2.65-1.13-2.11-.39-1,.79-.52.26-.47,0-.56,0-.58.08-.54.41-.67.45-.55.08-.47-.69-.42-.35-.56-.24-1.08,0-1.09.24-.61.53-.44.25-.57.28-1.27,1.77-3.7.31-1.29,0-1.73.14-.48.29-.3.33-.09.35,0,.37-.12.41-.22.12-.12v-.2l.29-2.15.21-.56.3-.56.17-.13.36-.17.23-.15.7-.69.18-.56-.37-1.87v-.37l0-.15.13,0,.37-.06.22-.17,0-.28-.12-.59V134l.07-.56.19-.6.53-1.16Z" transform="translate(-216.37 -29.75)"/><path class="cls-1" d="M277.6,173.27l.71,0,.51.09,1,.34.5.11h.3l.46-.12.3,0,.32.15.31.23.54.53.84-.7.75-.79.2-.61.32-1.42.31-.48.59-.15h.76l.67-.15.31-.58-.15-.69-.66-1.31,0-.8.33-.8.54-.75,1.32-1.22,1.21-.68,2.66-1.06.31-.21.39,1,1.13,2.11.52,2.65.37,1.15.68.92.4.79.11.36.22,1.58v.48l-.06.43-.23.54-.23.3-.51.37-.17.23-.7,2.16-.16.75-.05.52,0,.5.12.51.57,1.53.11,1,.41,3-.17,2.61,0,.53.08.21.06.29v.19l-.1.25-.28.53-.48.54-.16.12-.14.16-1.46,2.23-.06.07-.65,1.05-.12.16-.09.09-.39.14-.12.1-.06.14,0,.22,0,.1.07.08.34.13.13.08.06.14,0,.2-.33.5-.09.08-.07,0-.27.12-.15.09-.11.12-.09.14-.09.2-.19.58,0,.38.06.86.23.44.59.73.14.22.19.41.15.25.48,1.09.24.35,1.93,2,.15.24.06.15.12.47.06.14.12.15.21.16.4.23.4.08.27,0,.37,0,.18,0,.37.18.61.64,1.34.8.77.54.27.5.42,1.18,1,1.59,1.19,2.57.72.77,1.65.83.87.76,1.38.52.42.28.15.25.31.78,0,.16.79.72.33.5,1.18,3.15,1.59,2.64.24.6.12.58,0,1.32-.1.18-.2.08-.2.13-.1.3.08.15.39.4.13.25-.05.53-.17.63-.09.63.34.79.07.73.08.31.37.37.43.43.14.55.54.82.37,2,.14.43.25.28.32.25.28.3.12.46.08.22.2.13.24.11.2.14.2.31v.22l-.08.23,0,.76,0,.15.15.25.18.11h.19l.16.07.06.31v1l.22,1.1.56.6.75.45.69.57.19.49.28.55-.84-.13h-.3l-1,.12H318l-.38,0-.37.13-1.56,1-.14.35,0,.3.14.64.08.64,0,.72-.22.94-.34.9-.21.22-.3.12-1.12,0-.38,0-1.62.65-.37.07-.38-.1-.26-.2-.39-.45-.23-.17h-.33l-.38.17L308,253.57l-1.17.92-.4.19-.77.1-.32.16-.48.07-.18-.44-.06-1.1-.05-.26-.15-.16-.27-.13-.59-.15-.47-.18-.48-.37-.24-.3-.18-.3-.29-.17-.27-.1-1.22.2-1.29-.27-.63-.38-.87-.76-1.24-.8-.41-.12-.52-.07-.91,0-.47.08-.35.12-.52.28H293l-.19-.07-.71-.44-1.1-.4h-.35l-.14,0-.71.44-1.15.51-.51,0-.75,0h-.09l-.12,0-.56.21-.5.31-.19.18-.25.31-.14.26,0,.16-.1.52-.05.16-.08.12-.1.1-.11.09-.1.1-.09.12-.37.68h-.18L284,253l-1.46-1.16-.18-.27,0-.47.07-.35.25-.76,0-.24v-.29l-.05-.32-.1-.29-.83-1.46-.06-.18-.07-.27-.27-.37-.45-.47-1.56-1.32-.68-.47-.94-.24-.45-.05-1.88-.7-1.2-.32-.52-.27-.23-.18-.16-.26-.09-.23.19-.79.25-.26.31-.43.28-.54.24-.58.07-.33.05-.34-.06-.41-.09-.28-.48-.82.35-4.43.36,0,.18-.08.18-.19.08-.2.06-.45-.06-2.36.13-.29.24-.25.52-.26.73-.28.61-.48,1-1.37.37-.26.52-.23.23-.18.16-.25.08-.31,0-.34,0-.37-.07-.32-.25-.28-.26-.17-1.41-.3-.85-.45-.69,0-.66.06-.4-.25-.4-.47-.55-1.14-.5-1.47-.17-.33-.28-.35-.38-.21-.32,0-.31,0h-.3l-.25-.22-.16-.23-.16-1.34.27-.73.08-.31,0-.31-.12-.27-.46-.74-.1-.26,0-.32.1-.36.26-.45.28-.36.44-.41.34-.25.48-.25.66-.23,2.34-.44,1-1.11.26-.8,0-.36L277,209l-.41-.19-.4-.12-.3-.27-.11-.36v-.33l.1-.3.17-.24,1.69-1.57.16-.24.13-.28.08-.31,0-.32-.11-.27-.28-.22-.41-.18-.68-.21-.56-.26-.18-.16-.2-.15-.24-.15h-.31l-.36.14-.33.36-.6.45-.15-.23,0-.13-.09-.25-.17-.16-.3-.08-.49.13-.3.14-.29.17-.31,0-.39-.35.5-.31,1-1,.33-.27.31-.2.27-.12.33-.45-.28-1.16-.39-.41-.34-.29,0-.05-.06-.08-.1-.23-.1-.31v0l0-.71-.06-.3-.39-.84-.08-.32,0-.51.43-1.88.21-1.64v-.56l0-.18,0-.16-.19-.41-.06-.31v-.16l0-.13.07-.24.42-1,.14-.08.27-.09.52,0,.3.08.29.11H275l.12-.6-.25-4-.19-.29-.25-.21-.28-.13-.21-.25-.09-.41.05-.72,0-.47-.06-.4-.69-1.68,0-.4.22-.48.76-.83.49-.42.33-.44.49-1.13.35-.27.34-.11.28-.06.14-.45.13-.7.21-.36Z" transform="translate(-216.37 -29.75)"/><path class="cls-1" d="M250.6,141.73V142l-.46.52-2.26,1-.41.51-.42.67-.49.6-.61.3-.54-.11-1.22-.66-.6-.19-.59,0-.59,0-.53.16-.44.31-.31.47-.34.7-.25.73v0l0,0-3.62,3.18-.57.73-.22.21-.21.11h-.14l-.37,0-2.77-1.06-1-.25-.83,0-2.33.14-1.41-.37-.54-.31-1.89-1.78,0,0,0,.06.46-.94,1.56-2.36.91-.95,1.09-.86,1.19-.66.44-.41.17-.61.08-.66.19-.61.52-1,.78-1,1-.85,4.6-2.74.82-.8,1.23-1.8.18-.61.23-.09.29,0,.26-.15.45-.17,2,.06.56-.12.59-.25.47-.38.2-.52.08-.32.39-.65.12-.32v-.28l.2.1.47.25,1.1.29.41.31-.06.51-.18.6.06.61.18.16.48.2.18.21.07.26v.28l0,.56-.23.78v.23l.19.2.29.09.25.12.08.27v.32l.17.56,0,.32-.05.29-.18.56,0,.26v.29l0,.22.17.55,0,.28-.09.23-.13.2,0,.22.13.58.59.94.25.58,0,.26v.54l.08.25.25.29.26.17.17.17Z" transform="translate(-216.37 -29.75)"/><path class="cls-1" d="M240.54,147.08l0,.54.14.36.48.66.16.37v.27l-.11.55v.27l.62,1.29,1,.11,1.25-.37,1.34-.17-.32.64-3.83,5.1-.11.5.25.61.4.35,1.3.74.48.17h.51l.23,0,.28-.26,1.19-.63,2.23-1.72.45-.49.22-.46.3-1,.24-.41.25-.19.29-.15.32-.11,1.18-.15.08,0,.19.32.48.15.59.1.5.18.52.45.94,1,.58.41.79.43.75.09h.75l.76.19.73.68.61.91.72.74,1.08.17,1.95-.6,1-.59,1.05-.14.8.39,1.47,1.45.22.11.42.31.17.09h.7l.59.34.16.28-.07.42-.67,1.19,0,.63.85,1.24.33,1.72.76,1.43v0l.09.54.2.62.5.4.6.31.51.38.15.25.19.58.16.25.25.18.56.21.26.17.38.56.31.61.41.49.66.18,1.35,0-.74.75-.21.36-.13.7-.14.45-.28.06-.34.11-.35.27-.49,1.13-.33.44-.49.42-.76.83-.22.48,0,.4.69,1.68.06.4,0,.47-.05.72.09.41.21.25.28.13.25.21.19.29.25,4-.12.6h-.41l-.29-.11-.3-.08-.52,0-.27.09-.14.08-.42,1-.07.24,0,.13v.16l.06.31.19.41,0,.16,0,.18v.56l-.21,1.64-.43,1.88,0,.51.08.32.39.84.06.3,0,.71v0l.1.31.1.23.06.08,0,.05.34.29.39.41.28,1.16-.33.45-.27.12-.31.2-.33.27-1,1-.5.31-.54-.92-.23-.17-.34-.18-1.15-.37-.39,0-.35,0-.61.17-.62.11h-.3l-.58-.07-.31-.17-.24-.23-.37-.81-.18-.31-.23-.3-.43-.36-.36-.2-.37-.11-.8-.08-.45-.11-.26-.2-.14-.25-.05-.27v-.18l0-.2.07-.26.26-.53.17-.24.15-.24,0-.31-.07-.31-.23-.34-.42-.48-.16-.23-.16-.32-.15-.38-.43-.63-.33-.34L259,191.92l-1.26-1.19-.75-.5-.13,0-.17.14-.14.65.48,2.85.1,3-.12.84-.18.49-.24.23-1,.7-9,2.59-.38.2-.35.27-3.5,4.1-.45.76-.19.39-.34,1.16-.16.36-2.47,3.71-1,1.19-.65.54L234.3,213l-1.83-.86-1.81-1.76-2.11-1.46L226,207.44l-2.54-1.95-.85-1.09-.6-1.71.07-1.17v-1.27l0-.27.6-.5.17-.57.14-.19.65,0,.31-.67,0-.46.27-.37.52,0,.55.88.84.39,1.1.42.91.14,1.06-1,1.14-2.06.23-2.73-.72-2.23-1.47-3.2-.88-1-2.7-2.63-.49-.61-.64-.17-.39.13-.69-.5-.61-.95-.74-.85-.59-.89.14-.28.2-.24.38-.16.22-.59-.1-.32-.24-.3,0-.38.41-.1-.13-.52-.13-.62.25-.43.46.06.52-.29.48.49.86-.07.44-.64.13-1-.63-1.38-1-1-.91-.69-.69-1-.47-.87-1-1.31-2.32-2.5-1-1.23.14-.4.36-.18.43-.43-.07-.57-.25-.66.25-1.49v-.46l-.16-.52-.28-.59-.18-.56.12-.44.3-.27.2-.14.18-.17.22-.33.41-1v-.66l-.42-1.63.14-.57.32-.69.4-.63.33-.4,2.52-1.72.66-.68.54-1,.4-.45.55-.19.53-.12.31-.33,0-.06,0,0,1.89,1.78.54.31,1.41.37,2.33-.14.83,0,1,.25,2.77,1.06.37,0h.14l.21-.11.22-.21.57-.73,3.62-3.18ZM231,214.51l-.16.22-.2.48.16.41.24.27,0,.36,0,.48.07.52-.32.05-.38,0-.1-.27.11-.29-.1-.47L230,216l.21-.25.09-.43.34-1Z" transform="translate(-216.37 -29.75)"/><path class="cls-1" d="M429.75,248l-1,.41.25.52,1.17.69,3.78,4,.81.55.91.4,1.08.32.87.71.28,1.16-.32,1.13-.94.58-1-.35h-.44l0,.53.32,1.41.17.41.88.66,1.24.5,1.09.58.48.95.2.65.95,1.29.31.69,0,.57-.16,1.09.08.55.37.68.84,1.11.26.78.14,1.2.2.55.42.39,2.29,1.28.31.27.48.62.29.27.28.11.61.08.26.09.41.43.2.54,0,.59-.27,1.31,0,.55.19.48,1.23,1.61.53.51.6.33,1.68.36.55.29.51.49.32.56.51,1.25L456.3,288l.43.36,1.07.71.38.41.8,1.21.18.48.3,2.46-.12.88-.24.55-.3.37-1.32,1.06,0,.81-.17.35-.39.23-.47.13-.42.06-.34.21-.32.47-.47.94-.67.9-1.53,1.56-.62,1,11.64.05,3.52.71.15.07.25.22.17.05.13,0,.23-.16.11,0,.56.11,1.18.37,1.2.6.55.17,1.3.14,1.75-.12.6.12.56.3.81.71.52.36.29,0,.33-.06.3,0,.17.24,0,.29,0,.86.08.61.27.49.78.95.18.52-.1.56-.35,1.11.35,1.12,2,1.28.6,1.18.08.32.24.6.07.31-.06.36-.46.55-.16.31-.05.6.06.51,0,.52-.32.62h11.89l5.17,0h6.25l.53-.14.28-.23.12-.22.16-.17.41,0,.31.11.21.17.24.14.4,0,.56-.29,1-.81,1.41-.48.39-.56.27-.69.37-.64.49-.36,1.93-.87,1.8-.48.53-.41.22-.33.35-.75.25-.35.33-.28.75-.46.33-.28.83-1.22.47-.53,1.46-.79.57-.46,1.09-1.12.59-.45,1.93-1.09.54-.54,1-1.25.6-.52.56-.28.58-.12,1.22-.13,0,.38,0,.09-.3.51-.08.49-.14.37-.54.24.06.1.07.22.06.1-.37.09-.24.3,0,.37.39.69-.27.07-.39-.06-.15-.06-.77,0-.16,0,.29.54.21,1,.19.55.32.44.86.67.33.43.2.6,0,.55-.22.51-.36.49-.09.18-.07.36-.15.17-.16,0-.3-.2H528l-.3.18-.28.21-.23.26L527,315l-.27,1.18v3.07h0L522.88,322l-.9.88-.45.56-.4,1.31-.15.66-.27,4.09-.24,1-.37,1-.9,1.38-2.77,3.33-.71.55-.51.31-1.78,1.47-1.5.94-1.65,1.39-1.14.71-.57.24-2.5.75-12.86,6.7-.3.1-.67.14-4,.16-.72-.17-.23-.12-1.2-.93-.5-.22-.62-.16-1.06-.06-.52.2-.29.31,0,.29,0,.34,1.58,2,.24.49,0,.38-.09.46-2.14,3.84-.31.74-.19.61-.1.87v.7l-.49-.2-.28,0h-.37l-.75.24-.33,0-.35-.18-.51-.36-.25-.05-.23.12-2,.57-1,.44-.53.39-1.1,1-.26.18-.72.3-.25.2-.27.16-.2.21-.25.18-.3.16-1,.15-1.25-.25-.39-.14-.28-.14-.7-.52-.25-.13h-.33l-.24-.15-.15-.24-.09-.32-.15-.29-.29-.14-.55.06-.31.17-.29.2-.24.11-.33,0-.32-.06-.94.07-.4-.14-.69-.6-.26-.14-1.16-.36-.75-.58-.13-.28-.06-.6-.14-.24-.4-.42-.15-.26-.11-.3-.07-.32-.11-.33-.18-.25-.28-.23-.33.12-.23.19-1,1.47-.21.2-.26.18-.93.36-1.12.3-3.76.52-2.09,0-.75.12-1.3.44-.85-.19-.59-.39-.64-.79-.44-.85-.59-1.78-.07-.35v-.29l.62-3.9v-1.09l0-.19-1-2.11-1-1.8-1.08-1.36-.43-.39-.47-.35-.27-.14-.32-.1-1.35-.29-.63-.21-.63-.29-.43-.07-.37.33-1.13,2-2.18,3.08-.38.37-.39.3-.44.22-.42.14-.87,0-1.32-.18-.42.05-.44.11-.91.14-.44,0-.45,0-1.55.42-.53.32-.47.1-.63.06-1.67-.09-.52.1-.43.2-.42.29-.57.29-1.18.31-.85-.07-.55-.19-.42-.27-.78-1.21-.16-.38-.3-1-.53-2.8,1.23-.68,1.55-1.32,1.65-1.71.64-.55,1.21-1.26.49-.37,1.29-.72,1.29-.43.35-.18.18-.3,0-.37-.18-.37-.26-.34-.32-.28-.42-.23-2.09-.78-.32-.18-.15-.16-.07-.14-.37-1.4-.53-1.21-.25-.43-.9-2.3-.1-.46,0-.44.39-4.31-.05-.73-.36-.85-1.4-2.5-.45-1.34v-1l.11-1.12-.18-1-1.13-3.07-.66-1.4-.32-.5-.72-.84-3.8-5.62-.5-.58-.43-.7-.44-1.13-.09-.38v-.24l0-.25.3-1.28.82-2.47.31-1.34.05-.74,0-.36-.31-1.27,0-.35.05-.35.09-.31.13-.29.47-.76.76-1.65.22-1,.14-2.89.09-.32.12-.28.19-.22.28-.17,1.64-.84.53-.4.16-.28.09-.34v-.28l0-.32-.14-.63-.2-.61-.13-.27-.16-.24-.2-.21-.21-.2-.49-.31-.31-.11-.35-.07-2.66-.21L409,280l-.87.26-2.06.83-.45.3-2.53,2.15-.3.18-1.48.69-.69.51-1.42,1.42-1,1.21-1.76,2.71-.7.86-.23.38-.18.35-.33.9-.15.25-.68,1-.27.54-.44,1.13-.21.31-.88.92-.62,1-.4.31-.6.33-1.34.51-.64.17-.79.12-.29.15-3.5,2.91-.29.18-.72.35-.7.15-1,0-.39-.28-.34-.41-1.36-2.69-.19-.22-.43-.4-.75-.51-.21-.19-.22-.37-.18-.51-.21-1-.05-.52,0-.45.06-.33,0-.37,0-.36-.1-.61-.11-.3-.57-1.1-.3-.38-.29-.26-.28-.14-.27-.1-.25-.11-.14-.09-.16-.15-.06-.15-.06-.25-.43-5.13-.12-.49-.21-.54-1.29-1.92-.41-.85-.13-1.15,2.93-1.37,1.18-1,.88-1,.92-.79,2-1.34.55-.5.43-.52.3-.47.43-.46.51-.22.61,0,.47.12.41.21.35.25,2.14,1.83.43.23.62.23h.64l.38-.26.12-.4-.11-.45-.21-.39-1.51-1.78-.5-.73-.19-.4-.3-1.12v-.61l.09-.52.29-.56.39-.37.54-.38.44-.15.33-.05.36,0,.7-.06.26-.21.25-.36.14-.39.07-.45.15-.48.27-.57.38-.35.29,0,.36.13.48.27,3.64,0,1.39-.31.74-.29.57-.29,1.66-1.17,1-.48,2.37-.8,6.58-1.12.75-.26,1.83-1,.53-.35.39-.39.28-.4.17-.43.07-.48.11-2.6-.46-2.65.11-1.83,0-1.05-.7-3.93-.27-.8-.21-.41-.13-.46v-.55l.26-.65.32-.37.4-.18.47,0,1.12.17L417,243.8l1.35.44,2,0,.75.11,1.48.38,4.73,1.77,1.33.65.34.22.37.31.28.31.06,0Z" transform="translate(-216.37 -29.75)"/><path class="cls-1" d="M575,410.19l.06.43-.22,3.52.08,1.2.41,2.34L575,423.5l.11.68-.18.74-.25.71-.25.38-.62.67-.22.34-.07.41,0,.38v.35l-.26.32-.33.07-.88-.16-.38,0-.41.68.6.86,1.57,1.28.32.44V432l-.14.36-.1.48,0,.4.37,1.15.5.76.11,1v1.08l.17,1,.39.55,1.55,1,.3.43.17.46.18,1,.72,2,.13,1-.56.6-2,.26-1,.25-.74.52-.16.52,0,.58,0,1.15.23.54.4.6.12.6-.58.54L572.05,452l-.56.42-1.15,1.33-.2.1-.5.13-.17.14-.09.51.08,1.38-.17.34-.63,0-.66-.14-.57.06-.37.58-.19,3.84-.4.87-.46.27-1.61.45-.65.39-.26.41,0,.51.12,2.46-.06.23-.48,1.13-.12.56.18.52.62.58.49.46,1.66,2.56.48.49,1.72,1.3.47.45.72,1,.69.68-.07.55-.46.37-.68-.05-.56,0-.39,1.16-1,.33-.56.51-.46.62-.17.48.34.9,0,.26-.2.13-.79.27-.3.17-.37.54-.15.59-.08.6-.15.59L562,486.92l-.26.89.17.91.35.89,1.24,3.1,1.23,3.11,1.23,3.1,1.23,3.11.65,1.65,1,1.28.54.46.63.39.69.24h.74l.33-.14.56-.44.32-.11.31,0,.94.29.82-.27.65.4,1.18,1.31,1.51.61.67.46.3.81-.65,1-3.26,1.31-1,.5-.76.94-.26.53-.06.61,0,1.77-.07.94.14.5.78,1.1-.36.46-.48.63-.48.36-1.69.89-.54.13-1,.1-.47.29-.27.43-.55,1.64-.4.64L564.78,527l-.77,1.68-.34.41-1.24.74-.19.2-.08.29.09.18.21.09.14.19-.14.48-.62.73-.77.29-.84.16-.79.31-.89.61L557,534.75l-.18.06-.49.08-.13,0-.32.66-.45,1.68-.5.78h0l-.32.14-1,.19h-.39l-.22-.09-.21-.17-.48-.6-.11-.2-.27-.59-.11-.11-.17-.08-.29,0-.19,0-.14,0-.21.09-.45.16h-.17l-.18,0-.23-.12-.88-.61-.31-.18-.24-.1-.12,0-.26-.06-.15-.05-.6-.46-1-.92-.64-.49-.14-.08-.09,0-.06,0h0l-.24,0-.22-.13-.65-.92-1.6-3-1.87-2.83-.56-1.34L540,525l0-.44v-.24l.06-.81.1-.26.23-.3.36-.2.3-.11.87-.15.34-.11.29-.19.76-.8,1.15-.93.21-.5-.68-1-1.82-.27-.31-.12-.42-.27-.49-.42-1.47-1.55-.51-.76-.4-.73-.22-.26-.28-.26-1.25-.73-.38-.43-.4-1-.48-1.81-.46-1.12,0-.25,0-.59.15-.66.41-1.07,0-.32-.11-.39-.26-.39-1.13-.66-.36-.38-.13-.6.07-1V502l-.09-.46-.18-.4-.31-.36-.41-.17h-.57l-.46.09-1.09-.15-1.85-1.12-.92.33-.31.23-.46.25-.36.25-.88.31-.52,0-.78-.19-.72-.32-1.66-1.16-.06-.06-.25-.17-.62-.26-.64.09.26-1,.11-.72-.15-.76-1.19-.89-.31-.51-.45-1.09-.26-.36-.26-.28-.18-.24-.1-.29v-.36l0-.21.09-.28.75-1.28.11-.29,0-.37-.09-.41-.28-.51-.24-.31-1.18-1-.39-.41-.94-1.18-.12-.32-.06-.41.1-1L516,484v-.21l-.05-.3-.19-.37-.21-.26-.16-.38,0-.49.22-2-.13-1,.36-.27.2-.09.45-.15.2-.12.17-.3.09-.44.06-2.37-.19-1-.24-.74-.26-.54-.19-.27-.1-.31,0-.43.08-.64.1-.41.17-.46,0-.11v-.17l-.45-.62,0-.9.24-.56.66-1.05,0-.43-.09-.57-.31-1-.1-.51,0-.42.33-1.38-.07-.37-.22-.34-.62-.32-.4,0-.37,0-.3,0-.28-.14-.26-.21-.51-.6-.69-1-.14-.26-.08-.3v-.26l.21-.44.51-.12.8-.06.3-.07.28-.19.3-.26.36-.44.52-.5.22-.15.3-.26.14-.2.08-.28,0-.34-.3-.57-.13-.48.19-.86.52-1.38.27-.24.25-.16,1.5.06.29-.21.14-.18.15-.26.95-3.68.49-1.1.23-.69.65-4,0-.66-.29-.68-.36-.32-.33-.4-.18-.41.57-2.49.11-1.53.26-1.52.43-.26,2.36-.38.78-.26.36-.25.5-.83,2.73-6.58.86-1.55.43-.59.59-.68.83-.71,1.7-1.81.45-.66.74-1.69.21-.81,0-.33v-.34l-.45-1.77.07-1.09.77-3.3.53-.4.47.1,19.5,9.73.79.16.47-.12L575,410.2Z" transform="translate(-216.37 -29.75)"/><path class="cls-1" d="M511.16,553.4l-.8-.93-.46-.34-1.4-.62-1.07-.77-.62-.32-.61-.13-1,.13-.12.08,0-.33.19-.35.43-.59.12-.7-.09-.61-.16-.61-.27-3.06-.12-.57-.4-1.2-.13-1-.12-.13-.19-.05-.23-.15-.79-1-1-.73-.08-.08-.13-.32h0l1.07-.81.5-.46.32-.53.26-.95.3-.59.78-1,.12-.22.11-.28.67-2.68.14-.29.15-.24.12-.23-.2-.37-.24-.27-1.78-1.36-.4-1-.54-1.11-.19-.65-.09-.65V525l.07-.36.31-.54.24-.35,1.48-1.34L506,522l1-.29.26-.16.19-.26.08-.37.08-.88v-.35l-.24-1.38.07-.35.2-.33.92-1,1.35-2.06.48-.48.34-.21,1.46-.67.3-.06h1l.34-.06.62-.19.3,0,.3.06.22.17.39.43.21.16.24,0,.17,0,1-.43.24-.23.16-.32,0-.59-.06-.4-.25-1,0-.25,0-.28.1-.33.2-.39.21-.28,1.28-1.26.74-.93.33-1.73.41-6.57.64-.09.62.26.25.17.06.06,1.66,1.16.72.32.78.19.52,0,.88-.31.36-.25.46-.25.31-.23.92-.33,1.85,1.12,1.09.15.46-.09h.57l.41.17.31.36.18.4.09.46v.92l-.07,1,.13.6.36.38,1.13.66.26.39.11.39,0,.32-.41,1.07-.15.66,0,.59,0,.25.46,1.12.48,1.81.4,1,.38.43,1.25.73.28.26.22.26.4.73.51.76,1.47,1.55.49.42.42.27.31.12,1.82.27.68,1-.21.5-1.15.93-.76.8-.29.19-.34.11-.87.15-.3.11-.36.2-.23.3-.1.26-.06.81v.24l0,.44.07.4-.63,1.59-.75.51h-.42l-.45-.08-.39-.2-.31-.3-.26-.37-.72-1.75-.24-.38-.29-.21-.68-.32-.55-.08h-.56l-.42.11-.72.45-.66.75-.19.3-.16.36,0,.41-.11.41-.35.84-.15.47-.07.61.14.73,0,.09v.05l.24.59.08.39v.41l-.05.4-.29.5-.85,1.17-2.34,2.68-1.44.63-.65.2-.51.26-.4.3-.22.27-.32.53-.29.64-.52.8-1.24,1.55-.12.3-.28,1.4-.13.41-.18.45-.35.64-.24.35-.18.21-1.16,1.11-.32.38-.23.35-.51,1.46-.2.3-.21.21-.48.24-.38.13-2.58,1.06-1.13.69-1.07.84-.28.28-.19.23L512,552l-.47.93-.34.51Z" transform="translate(-216.37 -29.75)"/><path class="cls-1" d="M502.1,539l-.27-.63-.49-.38-.46-.15-1.13-.2-.68-.23-.28-.18-.5-.47-.49-.32-.14-.06-4.81-1.22-1.1-.51-.94-.77-1.35-1.63-.7-.67-1.58-.94-.62-.27-.66-.17-1.81-.15-.24-.11-.16-.3,0-.64-.06-.32-.4-.39-1.17-.69-.25-.27-.29-.51-.7-.32-1.38-.32-.71-.44-.13-.54v-.59l-.26-.58-1.62-1.91-.66-.47-.33-.1h-.26l-.25,0-.26-.2-.3-.44-.19-.17-.3-.08-.18-.08-.63-.43-.28-.14-1.21-.21-1.68-.73-3,0-2.57-.95-3.11-2.26-5-1.81-1-1-1.28-.65-1.08-.76-.5-.19-1.14,0-.54-.15-.45-.28-.41-.16-.47.21-.24-.41-.37-1.25-.25-.3-.29-.13-.85-.19-1.6-.81-1.78-.43-3.39-1.18-2.24-.36-.71.5v-.72l-.53-.44-.27-.3-.21-.18-1.05-.36-2.07-.95L433,503l-1.81-1.27-2-1.49-.83-.75v-.34l.15-.36-.22-.47-.32-.4-.88-.42-2.46-1.36-.45-.12-1.25-.17-.48-.31-.38-.45-.09-.32-.36-.24-.7-.24-1.1.25-1-.26-1-.38L416.5,493l-.14-.18-.07-.59-.08-.3-.15-.24,0-.42-.16-.42-.74-.27-1.44-.46-4.14-1.82-2-1.13-2.8-1.15-.61-.85-3.2-1.68-.79-.63-.39-.12-.43.06-.2.09-.21-.05-.46-.33-.32-.36h0l1.63-2.57.19-.45.2-.59.22-.49,1.06-1.9.7-.63,6.12-3.88.05.38.06.25.12.29.2.25.28.21.81.29,2.2.36,2.19.74,1.07.2.29.09.21.17.06.27-.06.29-.09.29.05.45.25.59.68,1.06.29.59.18.5.06.34.18.33.33.26,1.11.37.57.39,0,.64.07.28.11.28.16.26,1,1.07.24.18.26.15.3.13.63.19.55.07.32,0,.38-.08.68-.25.71-.39.7-.53.28-.1H426l.26.25.08.31.06.85,0,.1,0,.06.16.22.17.19.15.24,0,.29-.22,1.34v.27l0,.32.12.25.3.12.46,0,2.21-1.17.31-.25.2-.29.35-.9,1.15-1.8.22-.21.37-.18.54-.12,3.06.05,3-.47,1.32-.06,1.26-.32L445,480l.86.35.26.14.57.18,2.16.27,1.2,0,0-.28-.14-.6-.09-1.25.15-.89.17-.25.27-.11.31,0,.63.05.66.16.87.31.24,0,.22,0,.22-.14.19-.19.35-.5.93-1.85.23-.31,1.7-1.61.35-.47.28-1.22.13-1.49.2-1.16.17-.45,0-.34-.05-.38-.18-.4-.41-.53-.22-.63.25-1.37.16-.34.29-.45.17-.19.21-.18.26-.16.55-.23.34-.08.37,0,1.3.17h.37l.37,0,.63-.19.28-.13.19-.18,0-.28-.28-.71-.08-1,.73-1.09.78-.7.53-.31.44-.07.61.22.27.13.27.16.38.12.48.09.91,0,.53,0,.41.1.3.17.34.14.52.07.57-.09,2.42-.65-.06.53-.13.56v.26l.07.27.17.3,1.8,2.29.7.41,1.83.46,1.94-.49.79-.09.72-.15.62-.25.69-.35.32-.05.38.07.27.16.22.21.15.27.33.9.14.28.16.25.18.23.23.17.28,0,.29-.12.77-1.1,0-.26,0-.3.06-.33.35-.63.08-.28v-.63l0-.28-.07-.3-.15-.27-.32-.49-.1-.28,0-.31.1-.3.14-.27.2-.2.26-.09.29,0,.24.08.16.08.21.13.62.65,1.37,2,.57.8.38.94.14.28.18.23.28.22.36.17.6.16.42.07.32.1.11.22,0,.27-.12.26-.18.24-.22.19-.54.28-.24.17-.15.24,0,.32.29,1.56,0,.28,0,.21-.09.24-.25.54-.07.29.37.36.74.36,3.64,1,.32.12.32.22.28.09.26-.08.79-.6.44-.21.31-.1.66-.12h.34l.68.08h.36l.33-.06.29-.13.19-.2.09-.25-.06-.27-.13-.26-.08-.28,0-.28.22-.12.34.06.93.71.45.13.64-.11.4.12.46.28,1.67,1.52.3.18.4.12.34,0,.27-.13.81-.85.24-.17.26-.13.29-.07h.27l.3.07.27.12.25.16.24.25.22.32.22.53.06.35,0,.38-.13.67-.1,1.27.09.27.2.27.44.21.79.28.47.27.82.65.45.45.62.91.51.46.13,1-.22,2,0,.49.16.38.21.26.19.37.05.3V484l-.08.37-.1,1,.06.41.12.32.94,1.18.39.41,1.18,1,.24.31.28.51.09.41,0,.37-.11.29-.75,1.28-.09.28,0,.21v.36l.1.29.18.24.26.28.26.36.45,1.09.31.51,1.19.89.15.76-.11.72-.26,1-.41,6.57-.33,1.73-.74.93-1.28,1.26-.21.28-.2.39-.1.33,0,.28,0,.25.25,1,.06.4,0,.59-.16.32-.24.23-1,.43-.17,0-.24,0-.21-.16-.39-.43-.22-.17-.3-.06-.3,0-.62.19-.34.06h-1l-.3.06-1.46.67-.34.21-.48.48-1.35,2.06-.92,1-.2.33-.07.35.24,1.38V520l-.08.88-.08.37-.19.26-.26.16-1,.29-.65.37-1.48,1.34-.24.35-.31.54-.07.36v.31l.09.65.19.65.54,1.11.4,1L506.2,530l.24.27.2.37-.12.23-.15.24-.14.29-.67,2.68-.11.28-.12.22-.78,1-.3.59-.26.95-.32.53-.5.46-1.07.81Z" transform="translate(-216.37 -29.75)"/><path class="cls-1" d="M398.12,482.14l-.55-.62-.33-.25-.57-.18-.57-.1-.44-.18-.18-.48-.15-.12-.5-.12-.05-.22,0-.11.41-.21.58-.15.11-.41-.44-.65-.84-.53-1.18-.51-.77-.79.56,0,.32-.17.13-.3,0-.36-.13-.28-.2-.27-1.41-1.33-.58-.27-1.51-.22-.43-.32-.25-.52-.26-.69-1.36-2-.2-.6-.23-.29-1-.71-.33-.33,0-.2,0-.94-.11-.22-1.27-1L382,464.37l-.78-.42-.6-.33-.7-.45-1.26-1.05-1.45-.7-.1-.15-.24-.16-.29-.15-.24-.06-.33-.11-.21-.28-.18-.33-.19-.3-.21-.2-.21-.15-1.21-.62-.43-.43.1-.68-.09-.7-.07-.7-.39-.63-.49-.72-.3-.18-.09-.34.14-.27.2-.48-.12-.26-.34-.68-.66-.34-1-.61-.34-.34-.56-.8-.39-.4-.3-.14-.71-.07-.29-.11-.19-.22-.3-.95.79-.09.23-.28.05-.29-.21-.39-.27-.57-.18-.31-.22-.65-.35-.54-.45-.22-.48-.17-.24-.41-.16-.47-.21-.38-.38-.22-1-.4,0,.66-.57.93-.56-1,.24-.8,0-1.11-.26-.68.31-.23v-.47l.38-.23-.19-.32.07-.25.07-.32-.27-.34-.17-.51.34-.12.07-.75-.2-.52-.52-.31-.07-.37,0-.22.09-.22,0-.21-.15-.19-.31-.07-.19.15-.08.48-.21.24-.36-.13-.49.09-.54-.32-.61,0v-.78l.07-.42.4-1,.31-.41-.13-.38.27-.23.52.11.53-.42.51,0,.35.05.16.33-.29.43-.07.41.27.22.38.2.54.44.23-.32,0-.63.16-.63.43-1.33.25-.9,0-.61.1-.8.34-1,.34-.93.49-2.48-.19-2.22-.24-1.1-.73-2.1-.81-1.11,1.36-1,.48-.68,1.06-2,.25-.31,4.14-3.4.29-.34.2-.32.39-1,.22-.35.23-.13.19,0,.09,0,.05,0,.12.07,1.37.67.7.16,2-.07,2.75-.38.4-.14.79-.53.77-.34.2.3.07.14,0,.11-.05.2-.12.39-.32.65-.28.34-.3.23-1.1.53-.23.18-.15.3,0,.43.37,1.64,0,.41V415l-.13.65-.19.36-.25.24-.57.25-.24.16-.18.24-.1.32-.11.73-.1.33-.13.28-.51.73-.29.54-.1.3-.06.33,0,.32.13.26.2.21.81.18,2-.1h.61l.59.05,1,.24,1.48.63.65.13,1.05.08.32.12.26.18.17.33-.84,2.12-.32.51-.39.44-.32.45L385,428l.29.54.1.31,0,.42-.91,1.75-.42.51-.07.38,0,.25.09.3.45.77.06.28-.06.28-.28.5-.05.28.08.26.26.55.25.31.35.33,1.69.69.34.19.49.38.41.25.57.21.4.08,1.09.1.27.11.4.22.52.52,1.57,1.09,1.3,1.43.81.17.86,0,.37.08.4.14.52.3.61.51.56.76-.3.5-.13.31-.11.46v.5l.53,1.19.15.52-.17.57-1.08,2.11-.32.46-.25.46-.22.56.23.31.24.24,1.24.85.21.21.18.23.28.53.05.37v.3l-.6,1.2.36,1.26.08.77.12.22.26.07,1.52-.28.27-.1.25-.16.21-.2.69-1,.24-.17.27-.1.32,0,.29.1.28.23.26.3.33.48.27.28.26.23.2.22.11.28-.19.79v.38l.28.45.27.26,1.26.89.21.2.18.23.14.39.11.55.07.91.27.87.54.62.39.85.52.73.14.31.1.35.09,1.1,0,1,0,.46-1,2.6-6.12,3.88-.7.63-1.06,1.9-.22.49-.2.59-.19.45-1.63,2.57Zm-32.45-35.22.18.34.09.25.3.16-.11.21-.35-.07-.45-.34-.39-.21v-.34l.23-.11ZM358.47,434l.2.09v.32l-.13.29-.27.07H358l-.25-.07.07-.36.25-.25.07-.31.31,0Z" transform="translate(-216.37 -29.75)"/><path class="cls-1" d="M364.11,418.78l-.73-1-.95-.91-1.85-2.48-2.32-3-.94-1.06-.22-.72-.42-.65-.32-1.31.14-1.05-.13-1.21-.46-.78-.3-.35-2-1.72-.55-.7-1.23-2.44-.27-.39,0-.79,0-.28-.23-.29-.45-.45-.91-1.25-1.27-.86-.55-.42.19-.11.22-.09.23-.15.38-.37.15-.34,0-.35,0-.3v-.34l.24-.8,1.62-.7.23-.19.12-.16.08-.14,0-.1-.13-.07-.09-.11-.08-.12.05-.52.08-.29.12-.16.13-.24.12-.14.13-.22.08-.31.3-.43.24-.69,0-.26.07-.23,0-.22-.09-.18-.27-.23-.26-.29-.51-.93-.1-.14-.2-.15-.22-.28-.19-.42,0-.34-.14-.27-.36-.38-.15-.37.11-.34.29-.17.2-.16h.15l.79.41.09,0-.07-.19-.42-.55-.41-.41-.55-.44-.29-.08h-.2l-.11-.09-.13-.12,0-.92.09-.27.34-.24.19-.06.22,0,.51-.36.28-.38,0-.24-.09-.29-.43-.63-.09-.21-.11-.18-.66-.68-.25-.21-.38-.22h-.19l-.36.46L347.43,377l-.21.12-.31.13-.22.18-.19.23-.24.12-.45.1-.8.34-.23.08h-.26l-.11,0-.1,0-.1-.15-.08-.37.1-.27,0-.19,0-.15V377l0-.2.06-.47.07-.15.11-.1.13-.2,0-.18-.08-.19-.31,0-.29,0-.18-.11-.07-.36v-.31l0-.22.17-.12.3-.3.16-.28,0-.45.13-.21.2-.08.2,0,.22,0,.32-.05.19-.1.77-1,.13-.24-.07-.13-.3-.14-.76-.07-.58-.2-.47-.06-.36.13-.17.25-.28.24-.18.05-.32-.17-.16-.19-.18-.17-.26-.31-.23-.72v-.34l-.09-.09-.19,0-.26,0-.59-.16-.13-.12-.1-.14,0-.63.2-.53.1-.34.12-.27,0-.15-.11-.17-.42-.4-.23-.16-.21-.17-.22-.12-.36-.05-.13.08-.08.1-.29,1-.28.43-.22.27-.31.19-.09.27,0,.23.06.16,0,.16-.09.09-.75.22-.79.58h-.06l-.07-.32-.32-.7-.42-.57-.42-.23-.38-.13-.32-.31-.5-.66-.1-.2.2-.28v-.25l-.12-.23-.49-.58-.4-.75-.22-.32-.26-.14-.32-.09-.22-.23-.36-.51-.51-.33-1.24-.57-.95-.8-4.49-2.4-.75-.56-.38-.33.07-.37-.06-.68-.15-.58.21-.19-.09-.25.24-.25h.27l.35.08.26-.16.34-.12.12-.46,0-.77-.4-.68-.3-.44.17-.35-.59-.67.13-.3-.3-.52.14-.25-.25-.56-.53-.68.12-.25.3-.28-.27-.6-.24-.47,0-.38-.21-.59-.31-.51-.43-.57-.45-.67.07-.47L321,345l-.53-.48v-.44l.15-.26-.5-.69,0-.21-.84-.79-.44-.32-.16-.35-.17-.32-.22-.25-.63-.56-1.22-2.1.8-.63.15-.07.51-.19.27-.13.26-.23.22-.32.24-.56.11-.38,0-.27v-.18l-.13-.48,0-.29.06-.29.42-1.21.06-.31.07-1.17.14-.23.35-.16.35-.06,1.63.18.44.45.12.16.26.6-.14.53-.23.54-.16.26-.19.23-.43.38-.72.48-.42.36-.06.1-.08.21.06.26.24.23.5.17.4,0,.71-.07h.32l.31.11.54.55.29.23.8.33.3.21.17.36,0,.29-.06.32-.2.59-.06.32,0,.27,0,.32.07.3.21.57.07.31v.33l-.05.33,0,.28.17.22.51.06,1.77.05.45-.08,1.48-.57,1-.62,1-1.87,2.95-1.69.73-.53,1.45-1.42.62-.89.31-.66.07-.34.14-1.45.1-.32.13-.27,1.3-.79,5-2.1.14,1,.15.28.3.36.3.15.33,0,.38,0h.43l.64.19.28.26.15.34.12.68.22.61,1.1.69.18,0,.54,0,.74,1.21.24.57.52,2.3.23.51.8,1.38.23.52.16.44.33,1.87.6.92.86,1,.43.69.16,2.56-.09,1.64.07.39.07.28.18.23,1.38.86.41.41.29.74,0,.42-.05.39-.15,2,.23,3,.28,1.28,1.42,1.42.38.62.09.63.95,3,.46.61.25.46.33.25.72.38.27.28.33.39H363l.47-.32.36-.06.64.19.3.23.17.27.06.38v1.32l.25,1.32.05,1.18.12.45.17.29,1.3,1.27.22.41.2.89.17.28.23.2.56.37,1,.78,1.09,2.6.28.35.41.35.29,0,.51-.12,1.39-.64.4-.09.6-.05.36.08,2.32,1,.26.16.23.18.78.48,2.24.84,1.39,1.15.15.24.16.52-.54,1.06.08.58.35.54,2.06,4.4.38.45.35,1.09-.25,2.61-.16.63-.44,1-.22.92,0,.5.15.35.24.17,1.08.56,1.62,1.23v.86l-.67,1.34-.75,1-1.24,1.17-1,.59-.24.35-.22.54-.35,1.81-.37,1.08-.77.34-.79.53-.4.14-2.75.38-2,.07-.7-.16-1.37-.67-.12-.07-.05,0-.09,0-.19,0-.23.13-.22.35-.39,1-.2.32-.29.34-4.14,3.4-.25.31-1.06,2-.48.68Z" transform="translate(-216.37 -29.75)"/><path class="cls-1" d="M348.17,394.66l-.37-.79.6-.77.25-1.11-.24-1.14-1-.84-.82-1.48L343.82,387l-1.66-.71h-.31l-.11-.15-.51-.49-.18-.28-.07-.42.08-.26.12-.22.05-.32-.45-1.17-1-.75L339,382l.13-.39.07-.77-.14-.7-.82-.57h0l-.15-2-.25-.67-.22-.89-.13-.29-.44-.7-.16-.61.17-.73-.44-.71v-.26l.54.07.31-.41-.11-.6-.71-1.33-.06-.31h.06l.79-.58.75-.22.09-.09,0-.16-.06-.16,0-.23.09-.27.31-.19.22-.27.28-.43.29-1,.08-.1.13-.08.36.05.22.12.21.17.23.16.42.4.11.17,0,.15-.12.27-.1.34-.2.53,0,.63.1.14.13.12.59.16.26,0,.19,0,.09.09v.34l.23.72.26.31.18.17.16.19.32.17.18-.05.28-.24.17-.25.36-.13.47.06.58.2.76.07.3.14.07.13-.13.24-.77,1-.19.1-.32.05-.22,0-.2,0-.2.08-.13.21,0,.45-.16.28-.3.3-.17.12,0,.22v.31l.07.36.18.11.29,0,.31,0,.08.19,0,.18-.13.2-.11.1-.07.15-.06.47,0,.2v.15l0,.15,0,.19-.1.27.08.37.1.15.1,0,.11,0h.26l.23-.08.8-.34.45-.1.24-.12.19-.23.22-.18.31-.13.21-.12,1.11-1.12.36-.46h.19l.38.22.25.21.66.68.11.18.09.21.43.63.09.29,0,.24-.28.38-.51.36-.22,0-.19.06-.34.24-.09.27,0,.92.13.12.11.09h.2l.29.08.55.44.41.41.42.55.07.19-.09,0-.79-.41h-.15l-.2.16-.29.17-.11.34.15.37.36.38.14.27,0,.34.19.42.22.28.2.15.1.14.51.93.26.29.27.23.09.18,0,.22-.07.23,0,.26-.24.69-.3.43-.08.31-.13.22-.12.14-.13.24-.12.16-.08.29-.05.52.08.12.09.11.13.07,0,.1-.08.14-.12.16-.23.19-1.62.7-.24.8V393l0,.3,0,.35-.15.34-.38.37-.23.15-.22.09Z" transform="translate(-216.37 -29.75)"/><path class="cls-1" d="M339,382l-.54-.16-1.22-.12.25-.55.33-.42.29-.47.13-.71h0l.82.57.14.7-.07.77Zm-3.43-.47,1.13,1,.24.28.11.19-.3-.08-.36,0-.38-.28-.55-.36-.33-.47-.17-.41.28-.14Z" transform="translate(-216.37 -29.75)"/><path class="cls-1" d="M316.53,338.25l-.62-1.07.07-.33-.38-.72-.56-.44-.77-.65.07-.46-.32-.65-.53-.71-.45-.57-.06-.28.24-.28-.05-.33-.33-.32-1.1-.71,0-.57,0-.77-.54-.46-.25-.27-.06-.46-.23-.62.14-.35-.28-.41-.13-.4-.56-.64-1.23-1.12-.26-.6-.2-.3v-.3l.25,0,.18-.17-.05-.36-.26-.35.08-.19,0-.34,0-.25-.46-.64-.12-.69-.16-.32-.25-.4-.08-.3-.31-.12-.1-.13-.16,0-.05-.17.05-.15.17-.18,0-.32,0-.34,0-.37-.14-.46-.2-.26-.05-.51.13-.59.26-.4v-.92l-1.15-1-.93-1.08-.18-.69-.49-.51-.24-.53-.29-.3-.35-.6-.44-.5-.13-.9.18-.82-.55-.3-.11-.49,0-.41-.27-.41-.19-.72.24-.4.37-.37-.24-.47h-.38l-.6-.46-.13-.8.08-.49.23-.23.18-.17-.32-.12-.26-.34-.24-.16-.16-.38-.37-.14-.4,0-.26.16-.65-.74,0-.27-.05-.33-.28-.18-.22-.26.27-.19.25-.21.34-.08.22-.58,0-.59-.27-.7-.54-.34-.57-.16-.43.17-.23.16-.1.23.13.24,0,.37.13.58,0,.35-.33-.1-.38-.8-.57-.65-.41-.43,0-.31-.12-.16.14-.14.45.16.68.21.18-.24.14-.35v-.59l-.25-.7-.3-.44-.39-.35-.39,0-.53.07-.25-.2-.27-.47,0-.49.2-.48.14-.29-.25-.26-.7-.26,0-.31.24.06.14-.19V290l.53-.1.27-.25.12-.23.3-1,.3-2.49.63-1.23,1.09-.82,4.12-1.4,1.55-1.09.7-.21.72-.08h.75l.12,0,.24-.07.91-1.78-.13-.52-.22-.52-.07-.29,0-.31.21-.37.91-1.15,1-1.79.09-.28,0-.25,0-.31,0-.25.1-.28.63-1,.08-.26.08-.48.13-.33.24-.35,4.47-3.79.48-.58.32-.52.46-1.42.2-.34.26-.27.49,0,.36.05.33.12.66.16.73,0,.46-.08.56-.17.86-.39.74-.21,1-.41.49-.37.56-.29-.15.54.12.56.33.51.47.51-.2.3,0,.36.09.37.14.33.43.66,2.08,1.93.61.25.29.14.18.15.37.38,1.81,2.86,2.07,2.59.55,1,.25.8v1.07l.15.32.09.32.15,1,.3.72.05.26,0,1.44.16.36.31.25.74.42.31.3.86,1.17.18.37,0,.45-.14.34-.08.35.17.46.49.64,1.61,1.54.39.23,1.41.41.2.41,1.08.92.94,1.38.33.27.38.18,1.54.45.18.1.12.2.06.21.1.17.25.09.36.62.66.39,1.46.49.85.43.76.56.46.51-.09.95-.18.31-.22.26L349,298l-2.23,2.23-.3.44-2.93,6.79,0,1.51-.39,1-2.21,2.65-.4.61-.25.5v.34l0,.27.15.33.65.93.93,2.17.37,1.19,0,1.78.18,1.11.15.4.18.31.45.38.26.15.3.1.37.1.36.12.34.25.13.28,0,.26-.08.27-.52,1.13-.09.32-.16,1.44.08,1.59-5,2.1-1.3.79-.13.27-.1.32-.14,1.45-.07.34-.31.66-.62.89-1.45,1.42-.73.53-2.95,1.69-1,1.87-1,.62-1.48.57-.45.08-1.77-.05-.51-.06-.17-.22,0-.28.05-.33v-.33l-.07-.31-.21-.57-.07-.3,0-.32,0-.27.06-.32.2-.59.06-.32,0-.29-.17-.36-.3-.21-.8-.33-.29-.23-.54-.55-.31-.11h-.32l-.71.07-.4,0-.5-.17-.24-.23-.06-.26.08-.21.06-.1.42-.36.72-.48.43-.38.19-.23.16-.26.23-.54.14-.53-.26-.6-.12-.16-.44-.45-1.63-.18-.35.06-.35.16-.14.23-.07,1.17-.06.31-.42,1.21-.06.29,0,.29.13.48v.18l0,.27-.11.38-.24.56-.22.32-.26.23-.27.13-.51.19-.15.07Z" transform="translate(-216.37 -29.75)"/><path class="cls-1" d="M294.55,290v-.15l-.17-.74-.23-.45-.33-.61-.23-.43-.42-.51-.6-.83-1.36-1.81.06-.27V284l.22-.25.33-.23.07-.84-.13-.68.06-.45-.21-.76-.26-1.13-.87-1.22-.88-1.13-1.15-1.08-.65-.49-.91-.36-.42-.34-.36-.45.15-.37.3.05.15.08.37-.27.14-.61v-.6l-1.78-2.64-.06-.64-.7-1,.12-.43-1-1.08-3.07-2.66v-.72l-1.71-1.15L275.69,260l-1.51-1.69-.94-1.38-.34-1.21-1.42-1.61-.34-.32-.27-.3.14-.22.35-.11.35-.33.05-.56-.38-.7-1-1.66-2.07-2.86-.78-.94-.06-.7-.15-.55,0-.28.31-.34.12-.39-.32-.85-.34-.77,0-.54-.5-1.35-.92-1-1.14-1.16-.38-.41.14-.49.73-.88,4.87-4.75.19-.12.24-.1h.45l2.71.78.79.66-.35,4.43.48.82.09.28.06.41-.05.34-.07.33-.24.58-.28.54-.31.43-.25.26-.19.79.09.23.16.26.23.18.52.27,1.2.32,1.88.7.45.05.94.24.68.47,1.56,1.32.45.47.27.37.07.27.06.18.83,1.46.1.29.05.32v.29l0,.24-.25.76-.07.35,0,.47.18.27L284,253l.25.1h.18l.37-.68.09-.12.1-.1.11-.09.1-.1.08-.12.05-.16.1-.52,0-.16.14-.26.25-.31.19-.18.5-.31.56-.21.12,0h.09l.75,0,.51,0,1.15-.51.71-.44.14,0H291l1.1.4.71.44.19.07h.21l.52-.28.35-.12.47-.08.91,0,.52.07.41.12,1.24.8.87.76.63.38,1.29.27,1.22-.2.27.1.29.17.18.3.24.3.48.37.47.18.59.15.27.13.15.16.05.26.06,1.1.18.44.48-.07.32-.16.77-.1.4-.19,1.17-.92,1.29-1.34.38-.17H310l.23.17.39.45.26.2.38.1.37-.07,1.62-.65.38,0,1.12,0,.3-.12.21-.22.34-.9.22-.94,0-.72-.08-.64-.14-.64,0-.3.14-.35,1.56-1,.37-.13.38,0h.33l1-.12h.3l.84.13-.28-.55-.19-.49-.69-.57-.75-.45-.56-.6-.22-1.1v-1l-.06-.31-.16-.07h-.19l-.18-.11-.15-.25,0-.15,0-.76.08-.23v-.22l-.2-.31-.2-.14-.24-.11-.2-.13-.08-.22-.12-.46-.28-.3-.32-.25-.25-.28-.14-.43-.37-2-.54-.82-.14-.55-.43-.43.56-.2,1.25-.24.65-.24.46-.09.5,0,.62.12.89.3.66,0,1.64-.21.38.4.29.42.36.74.71,2.19.3.3,1.52,1.07.31.35.23.4v.54l-.06.43-.75,1.58.05.69.16.95.82,1.84.71,1,.52.56.81.6.25.3.75,1.24.83.89.28.42,0,.59,0,.43-.65,1.61-.12.75v1l.16,1.22.16.63.22.58.51,1.09,1.17,1.69.2.45.11.41,0,.93,0,.27-.06.17-.24.41-.1.21,0,.1,0,.1.12.22.2.23.53.54.17.27.1.3.19.32.35.27.77.2.58,0,.41-.12.55-.28h.59l.43.05,3.11.9,1,.46,1.27.38.57.25,1.29.76.22.18,1.86,2.25.15.45.15.68.62,6.62.12.44.11.29.44.57-.3.65-.53.76-.32.18-.44,0-1.22-.36-.46,0-.39.09-.35,0-.24-.25-.16-.35-.22-1.36-.3-.75-.17-.21-.11-.1-.32,0-.5,0-1.38.47-.42.26-.5.15-.67.1-2.69,0-1.82.09v-1.07l-.25-.8-.55-1L330.14,272l-1.81-2.86-.37-.38-.18-.15-.29-.14-.61-.25-2.08-1.93-.43-.66-.14-.33-.09-.37,0-.36.2-.3-.47-.51-.33-.51-.12-.56.15-.54-.56.29-.49.37-1,.41-.74.21-.86.39-.56.17-.46.08-.73,0-.66-.16-.33-.12-.36-.05-.49,0-.26.27-.2.34-.46,1.42-.32.52-.48.58-4.47,3.79-.24.35-.13.33-.08.48-.08.26-.63,1-.1.28,0,.25,0,.31,0,.25-.09.28-1,1.79-.91,1.15-.21.37,0,.31.07.29.22.52.13.52-.91,1.78-.24.07-.12,0h-.75l-.72.08-.7.21-1.55,1.09-4.12,1.4-1.09.82-.63,1.23-.3,2.49-.3,1-.12.23-.27.25Z" transform="translate(-216.37 -29.75)"/><path class="cls-1" d="M264.31,237.27l0-.13,0-.75-.55-.71-3.08-3.09-1.51-1.5-.32-.6-1.57-1.33-.4-.92-.1-.93-.46-1-.69-.86-.46-.49-3.32-2.64-1.46-.93-3.73-2.17-4.7-2.38-4.94-2.48.65-.54,1-1.19,2.47-3.71.16-.36.34-1.16.19-.39.45-.76,3.5-4.1.35-.27.38-.2,9-2.59,1-.7.24-.23.18-.49.12-.84-.1-3-.48-2.85.14-.65.17-.14.13,0,.75.5,1.26,1.19,1.76,1.33.33.34.43.63.15.38.16.32.16.23.42.48.23.34.07.31,0,.31-.15.24-.17.24-.26.53-.07.26,0,.2v.18l.05.27.14.25.26.2.45.11.8.08.37.11.36.2.43.36.23.3.18.31.37.81.24.23.31.17.58.07h.3l.62-.11.61-.17.35,0,.39,0,1.15.37.34.18.23.17.54.92.39.35.31,0,.29-.17.3-.14.49-.13.3.08.17.16.09.25,0,.13.15.23.6-.45.33-.36.36-.14h.31l.24.15.2.15.18.16.56.26.68.21.41.18.28.22.11.27,0,.32-.08.31-.13.28-.16.24L276,207.19l-.17.24-.1.3v.33l.11.36.3.27.4.12.41.19.13.25,0,.36-.26.8-1,1.11-2.34.44-.66.23-.48.25-.34.25-.44.41-.28.36-.26.45-.1.36,0,.32.1.26.46.74.12.27,0,.31-.08.31-.27.73.16,1.34.16.23.25.22h.3l.31,0,.32,0,.38.21.28.35.17.33.5,1.47.55,1.14.4.47.4.25.66-.06.69,0,.85.45,1.41.3.26.17.25.28.07.32,0,.37,0,.34-.08.31-.16.25-.23.18-.52.23-.37.26-1,1.37-.61.48-.73.28-.52.26-.24.25-.13.29.06,2.36-.06.45-.08.2-.18.19-.18.08-.36,0-.79-.66-2.71-.78h-.45l-.24.1-.19.12L265,236.39Z" transform="translate(-216.37 -29.75)"/><path class="cls-1" d="M430.42,387.77l2.92,0,1.05-.14,3.39-.94,1-.38.25-.15.23-.17.39-.43.16-.23.55-1.1.2-.62.13-.65,0-.64-.09-1.28v-.25l.13-.63.11-.28,2.8-4.19.09-.25.42-2.53v-.52l0-.3-.07-.29-.13-.23-.14-.16-.78-.62-.51-.31-.26-.13-.87-.22-1.13-.49-.31-.09-.34,0-.66,0-.25-.05-.21-.16-.05-.32.13-.24.21-.19,1-.62,2.7-2.2,1.68-2.48,1.28-2.83.24-.86.85.19,1.3-.44.75-.12,2.09,0,3.76-.52,1.12-.3.93-.36.26-.18.21-.2,1-1.47.23-.19.33-.12.28.23.18.25.11.33.07.32.11.3.15.26.4.42.14.24.06.6.13.28.75.58,1.16.36.26.14.69.6.4.14.94-.07.32.06.33,0,.24-.11.29-.2.31-.17.55-.06.29.14.15.29.09.32.15.24.24.15h.33l.25.13.7.52.28.14.39.14,1.25.25,1-.15.3-.16.25-.18.2-.21.27-.16.25-.2.72-.3.26-.18,1.1-1,.53-.39,1-.44,2-.57.23-.12.25.05.51.36.35.18.33,0,.75-.24h.37l.28,0,.49.2-.13,1.81-.49,1.54-3.77,7.11-.51,1.61-.12,1.14-.38,1.86-.28.82-.21,1.1v.44l.5,2.49.1.28.07.14.1.14.53.51,2.36,1.51,2.07,1,.4.29.31.5.25.63.8,3.07.27.47.29.38.35.3.82.37.86.16.43,0,.39.1.28.11.31.2.34.41.23.38.65,1.35,1,2.25.42,1.39.2,1,0,.68-.49,1.31-.13.52v.76l.21.5.3.46.71,1.5.47.78.88.64.77.36,5.42,1.73.63.07h.52l1.5-.15h.6l.38.1.31.15.7.53.54.29,3,1.18,4.41,1.22.47.23,3.61,2.36.45.14.95.09.79,0,8.12,1.47,3.62-.22.58-.24.36-.3v-.36l-.23-.3-.73-.46-.36-.27-.29-.33-.16-.38.15-.41.29-.16.43-.07.91.06,1.35.3,1.55-.17.94.09.95.23-.77,3.3-.07,1.09.45,1.77v.34l0,.33-.21.81-.74,1.69-.45.66-1.7,1.81-.83.71-.59.68-.43.59-.86,1.55L526,431.89l-.5.83-.36.25-.78.26-2.36.38-.43.26-.26,1.52-.11,1.53-.57,2.49.18.41.33.4.36.32.29.68,0,.66-.65,4-.23.69-.49,1.1-.95,3.68-.15.26-.14.18-.29.21-1.5-.06-.25.16-.27.24-.52,1.38-.19.86.13.48.3.57,0,.34-.08.28-.14.2-.3.26-.22.15-.52.5-.36.44-.3.26-.28.19-.3.07-.8.06-.51.12-.21.44v.26l.08.3.14.26.69,1,.51.6.26.21.28.14.3,0,.37,0,.4,0,.62.32.22.34.07.37-.33,1.38,0,.42.1.51.31,1,.09.57,0,.43-.66,1.05-.24.56,0,.9.45.62v.17l0,.11-.17.46-.1.41-.08.64,0,.43.1.31.19.27.26.54.24.74.19,1-.06,2.37-.09.44-.17.3-.2.12-.45.15-.2.09-.36.27-.51-.46-.62-.91-.45-.45-.82-.65-.47-.27-.79-.28-.44-.21-.2-.27-.09-.27.1-1.27.13-.67,0-.38-.06-.35-.22-.53-.22-.32-.24-.25-.25-.16-.27-.12-.3-.07h-.27l-.29.07-.26.13-.24.17-.81.85-.27.13-.34,0-.4-.12-.3-.18-1.67-1.52-.46-.28-.4-.12-.64.11-.45-.13-.93-.71-.34-.06-.22.12,0,.28.08.28.13.26.06.27-.09.25-.19.2-.29.13-.33.06h-.36l-.68-.08h-.34l-.66.12-.31.1-.44.21-.79.6-.26.08-.28-.09-.32-.22L496,472l-3.64-1-.74-.36-.37-.36.07-.29.25-.54.09-.24,0-.21,0-.28-.29-1.56,0-.32.15-.24.24-.17.54-.28.22-.19.18-.24.12-.26,0-.27-.11-.22-.32-.1-.42-.07-.6-.16-.36-.17-.28-.22-.18-.23-.14-.28-.38-.94-.57-.8-1.37-2-.62-.65-.21-.13-.16-.08-.24-.08-.29,0-.26.09-.2.2-.14.27-.1.3,0,.31.1.28.32.49.15.27.07.3,0,.28v.63l-.08.28-.35.63-.06.33,0,.3,0,.26-.77,1.1-.29.12-.28,0-.23-.17-.18-.23-.16-.25-.14-.28-.33-.9-.15-.27-.22-.21L483,463l-.38-.07-.32.05-.69.35-.62.25-.72.15-.79.09-1.94.49-1.83-.46-.7-.41-1.8-2.29-.17-.3-.07-.27v-.26l.13-.56.06-.53.13-.73,0-.73-.05-.34-.11-.29-.42-.8-.08-.3v-.33l.08-.29.16-.29.2-.28.28-.34.32-.23.39-.19.67-.18.48-.21.48-.4L476,453l.16-.32.22-.25.31-.18.61-.09.5-.12.41-.22,1-.27.26-.25.8-1.58.28-.41.69-.72.71-.93.19-.22.22-.19,1-.66.2-.21.17-.25.32-.56.86-3.17v-5.19l-.4-.85-.49-.84-.12-.31-.66-1.2-.31-.72-.42-.65-1.56-1.41-.25-.31-.22-.06-.91-.7-.15-.17-1.45.12-.44-.12-1.11-.62-.53-.41-.34-.39.22-.22-.59-.89-.35-.38-.38-.16h-1.19l-.38-.05-.21-.12-.13-.14-.17-.12-1.11-.32-1.19-.07-.3-.09-.24-.44-.23-.09-.34-.07-2.1-1.18-1.92-1.53-.92-.48L462.9,422l-1.2,0-.14-.1-.16-.25-.13-.3,0-.27-.16-.08-.76,0-1,.11-.42.19-.86.66-.09,0-.12,0h-.18l-.3-.16-.12,0-.38.1-.21.1-.5.51-.66.38-.51-.23-.47-.42L454,422l-.19.09-.2.17-.21.11-.2-.07-.26-.18-1-.32-.2-.31-.79-.72-1.38-.87-.22-.25-.12-.39-.55-.59-.74-1.31-1.49-1.88-.85-.73-.91-.31-.17-.17-.62-1.16-.41-.34-1-.57L442,412v-.21l.41-.64-.57-2.32.27-.51.13-.09-.07-.2-.2-.21-.28-.09-.23-.12-.14-.29-.41-1.53-.2-.5-.2-.22-.16-.22-.29-1.08-.1-1.08-.11-.38-.44-.69-.2-.51-.25-1-.24-.4-1.41-1.46-.47-.28,0,.16-.11.28,0,.16-.43-.34-1.57-2.09-.21-.83-.17-.42-.32-.19-.51-.14-.12-.35.14-.82,0-.51-.1-.22-.19-.18-.31-.41-.13-.37-.15-.8-.19-.34-1.11-1.36Z" transform="translate(-216.37 -29.75)"/><path class="cls-1" d="M430.42,387.77l.79,1.39,1.11,1.36.19.34.15.8.13.37.31.41.19.18.1.22,0,.51-.14.82.12.35.51.14.32.19.17.42.21.83,1.57,2.09.43.34,0-.16.11-.28,0-.16.47.28,1.41,1.46.24.4.25,1,.2.51.44.69.11.38.1,1.08.29,1.08.16.22.2.22.2.5.41,1.53.14.29.23.12.28.09.2.21.07.2-.13.09-.27.51.57,2.32-.41.64V412l.49.21,1,.57.41.34.62,1.16.17.17.91.31.85.73,1.49,1.88.74,1.31.55.59.12.39.22.25,1.38.87.79.72.2.31-.13.31-.26.87-.2.3-.28.17h-.32l-1-.25-.39,0h-.48l-.37-.05-.57-.24-.29-.08-2.76-.43L444,422l-1.17-1.2-.47-.37-5-3.22-.58-.5-.37-.65-.37-.42-.34-.19-.34-.06-.28.11-.18.22-.13.29-.21.63-.28.51-.05.27.08.28.38.6-.2.55-.64.84-.14.43,0,.41.13,1,.07.27.31.6,0,1,.28,1.12.12,2.05.11.48.43.92.22.31.26.17.48.09.28.08.25.13.23.2.17.23.63,1.07.61.78v.43l-.16.14-.32.15-1.24.34.14.69,3.27,6.25.24,2,.36,1.26.24.61.21.44.7.95.92,1.5.14.5.05.4,0,.47.16,1.25,0,1.17-.23,2.05-.17,1.84,0,.54.71,1.24.46.89,0,.69-.69,2.5-.22.32-.31.12-.67-.05-.3,0,0,.2,1.13,3.15.41.45.52-.11.79-.22.9-.07.29-.09L446,463l.17-.23.28-.57.17-.25.62-.61.17-.24.13-.29.1-.31.12-.29.2-.17h.28l.3.08.67.27.45.14.37,0h.31l.68-.07.69-.14,1.22-.4.62-.14.49,0,.27-.11.23-.15.41-.4.29-.11.32,0,.5,0,.37,0,.3-.12.18-.22.28-.48.21-.3.84.43.6.45.71.38.93.75.35.23,1.88.88.08,1,.28.71,0,.28-.19.18-.28.13-.63.19-.37,0h-.37l-1.3-.17-.37,0-.34.08-.55.23-.26.16-.21.18-.17.19-.29.45-.16.34-.25,1.37.22.63.41.53.18.4.05.38,0,.34-.17.45-.2,1.16-.13,1.49-.28,1.22-.35.47-1.7,1.61-.23.31-.93,1.85-.35.5-.19.19-.22.14-.22,0-.24,0-.87-.31-.66-.16-.63-.05-.31,0-.27.11-.17.25-.15.89.09,1.25.14.6,0,.28-1.2,0-2.16-.27-.57-.18-.26-.14L445,480l-3.4,1.55-1.26.32-1.32.06-3,.47L433,482.3l-.54.12-.37.18-.22.21-1.15,1.8-.35.9-.2.29-.31.25-2.21,1.17-.46,0-.3-.12-.12-.25,0-.32v-.27L427,485l0-.29-.15-.24-.17-.19-.16-.22,0-.06,0-.1-.06-.85-.08-.31-.26-.25h-.26l-.28.1-.7.53-.71.39-.68.25-.38.08-.32,0-.55-.07-.63-.19-.3-.13-.26-.15-.24-.18-1-1.07-.16-.26-.11-.28-.07-.28,0-.64-.57-.39-1.11-.37-.33-.26-.18-.33-.06-.34-.18-.5-.29-.59-.68-1.06-.25-.59-.05-.45.09-.29.06-.29-.06-.27-.21-.17-.29-.09-1.07-.2-2.19-.74-2.2-.36L409,473l-.28-.21-.2-.25-.12-.29-.06-.25-.05-.38,1-2.6,0-.46,0-1-.09-1.1-.1-.35-.14-.31-.52-.73-.39-.85-.54-.62-.27-.87-.07-.91-.11-.55-.14-.39-.18-.23-.21-.2-1.26-.89-.27-.26-.28-.45v-.38l.19-.79-.11-.28-.2-.22-.26-.23-.27-.28-.33-.48-.26-.3-.28-.23-.29-.1-.32,0-.27.1-.24.17-.69,1-.21.2-.25.16-.27.1-1.52.28-.26-.07-.12-.22-.08-.77-.36-1.26.6-1.2v-.3l-.05-.37-.28-.53-.18-.23-.21-.21-1.24-.85-.24-.24-.23-.31.22-.56.25-.46.32-.46,1.08-2.11.17-.57-.15-.52-.53-1.19v-.5l.11-.46.13-.31.3-.5.3-.59.69-.46,1.19-.54,4.84-1,1.57.08.46-.05.24-.2.21-.4.12-.54.31-3.52-.22-1.55-.68-2-1.05-2.36-.16-.92.09-2.29-.16-.5-.22-.39-.11-.15-.17-.19-.21-.19-.48-.35-.2-.2-.16-.25-.11-.26-.11-.35-.06-.1-.12-.16-.46-.34-.82-.44-.24-.17-.16-.2-.09-.25.81-2.8.14-.19.19-.11L405,419l1.09-.46.29,0,.29,0,.26.18.18.24.43.89.14.21.31.17.45.14.82.06.43.16.35.16.59.05,1-1.06.15-.25-.08-.15-.43-.14-.37-.05-.36-.12-.26-.11-.68-.82-.2-.28.12-.26.37-.32,1.4-.79.38-.42.47-.86.18-.22.21-.11.22.05.5.26.3.06.32,0,.63-.15.34,0h.6l1-.21.4-.17.49-.33.24-.41.06-.35,0-.28-.09-.28-.26-.53-.16-.66,0-.36v-.36l.06-.34.1-.3.16-.26.2-.21.23-.17.28-.14.36-.05.44.07.62.34.91.65.22.11.19,0,.23-.33,0-.73-.09-.47-.83-2.08-.72-.72.17-.94v-.27l-.13-.93.21-.18.09-.05.09,0,.4.05h.05l0,0,0-.1v-.14l0-.14v-.15l0-.13.17-.29,0-.14,0-.18v-.38l0-.36-.12-.32-.66-1.29-.14-.43,0-.29.11-.3.06-.36v-.6l-.07-.34-.17-.44-.29-.49-1.46-1.81-.55-.87-.16-.3-.33-.86-.07-.12-.15-.13-.21-.12-.42-.12h-.24l-.19,0-.25.15-.15,0-.16,0h-.18l-.28-.19-.21-.18-1.07-1.65.68-1.6.78-2.54.19-.34.26-.37,1-1,1.89-1.41.53.6.13.19.17.43.14.51,0,.12.08.12.1.1.22.12,1,.35.3.15.21.14.57.66.46.36.42.41.24.17.31.14,1.24.37.23,0,.28,0,.51-.17.43-.26.72-.73.38-.23.27-.13.21,0,.26,0,.47.14.44.22.11.09.24.12.42,0Z" transform="translate(-216.37 -29.75)"/><path class="cls-1" d="M451.88,421.8l1,.32.26.18.2.07.21-.11.2-.17L454,422l.54.24.47.42.51.23.66-.38.5-.51.21-.1.38-.1.12,0,.3.16h.18l.12,0,.09,0,.86-.66.42-.19,1-.11.76,0,.16.08,0,.27.13.3.16.25.14.1,1.2,0,1.09.16.92.48,1.92,1.53,2.1,1.18.34.07.23.09.24.44.3.09,1.19.07,1.11.32.17.12.13.14.21.12.38.05h1.19l.38.16.35.38.59.89-.22.22.34.39.53.41,1.11.62.44.12,1.45-.12.15.17.91.7.22.06.25.31,1.56,1.41.42.65.31.72.66,1.2.12.31.49.84.4.85v5.19l-.86,3.17-.32.56-.17.25-.2.21-1,.66-.22.19-.19.22-.71.93-.69.72-.28.41-.8,1.58-.26.25-1,.27-.41.22-.5.12-.61.09-.31.18-.22.25L476,453l-.24.32-.48.4-.48.21-.67.18-.39.19-.32.23-.28.34-.2.28-.16.29-.08.29V456l.08.3.42.8.11.29.05.34,0,.73-.13.73-2.42.65-.57.09-.52-.07-.34-.14-.3-.17-.41-.1-.53,0-.91,0-.48-.09-.38-.12-.27-.16-.27-.13-.61-.22-.44.07-.53.31-.78.7-.73,1.09-1.88-.88-.35-.23-.93-.75-.71-.38-.6-.45-.84-.43-.21.3-.28.48-.18.22-.3.12-.37,0-.5,0-.32,0-.29.11-.41.4-.23.15-.27.11-.49,0-.62.14-1.22.4-.69.14-.68.07H450l-.37,0-.45-.14-.67-.27-.3-.08h-.28l-.2.17-.12.29-.1.31-.13.29-.17.24-.62.61-.17.25-.28.57L446,463l-.25.16-.29.09-.9.07-.79.22-.52.11-.41-.45L441.69,460l0-.2.3,0,.67.05.31-.12.22-.32.69-2.5,0-.69-.46-.89-.71-1.24,0-.54.17-1.84.23-2.05,0-1.17-.16-1.25,0-.47-.05-.4-.14-.5-.92-1.5-.7-.95-.21-.44-.24-.61-.36-1.26-.24-2-3.27-6.25-.14-.69,1.24-.34.32-.15.16-.14v-.43l-.61-.78-.63-1.07-.17-.23-.23-.2-.25-.13-.28-.08-.48-.09-.26-.17-.22-.31-.43-.92-.11-.48-.12-2.05-.28-1.12,0-1-.31-.6-.07-.27-.13-1,0-.41.14-.43.64-.84.2-.55-.38-.6-.08-.28.05-.27.28-.51.21-.63.13-.29.18-.22.28-.11.34.06.34.19.37.42.37.65.58.5,5,3.22.47.37L444,422l.83.39,2.76.43.29.08.57.24.37.05h.48l.39,0,1,.25H451l.28-.17.2-.3.26-.87Z" transform="translate(-216.37 -29.75)"/><path class="cls-1" d="M418.07,383.91l-1.89,1.41-1,1-.26.37-.19.34-.78,2.54-.68,1.6,1.07,1.65.21.18.28.19H415l.16,0,.15,0,.25-.15.19,0H416l.42.12.21.12.15.13.07.12.33.86.16.3.55.87,1.46,1.81.29.49.17.44.07.34v.6l-.06.36-.11.3,0,.29.14.43.66,1.29.12.32,0,.36v.38l0,.18,0,.14-.17.29,0,.13v.15l0,.14V404l0,.1,0,0h-.05l-.4-.05-.09,0-.09.05-.21.18.13.93v.27l-.17.94.72.72.83,2.08.09.47,0,.73-.23.33-.19,0-.22-.11-.91-.65-.62-.34-.44-.07-.36.05-.28.14-.23.17-.2.21-.16.26-.1.3-.06.34v.36l0,.36.16.66.26.53.09.28,0,.28-.06.35-.24.41-.49.33-.4.17-1,.21h-.6l-.34,0-.63.15-.32,0-.3-.06-.5-.26-.22-.05-.21.11-.18.22-.47.86-.38.42-1.4.79-.37.32-.12.26.2.28.68.82.26.11.36.12.37.05.43.14.08.15-.15.25-1,1.06-.59-.05-.35-.16-.43-.16-.82-.06-.45-.14-.31-.17-.14-.21-.43-.89-.18-.24-.26-.18-.29,0-.29,0L405,419l-1.46.36-.19.11-.14.19-.81,2.8.09.25.16.2.24.17.82.44.46.34.12.16.06.1.11.35.11.26.16.25.2.2.48.35.21.19.17.19.11.15.22.39.16.5-.09,2.29.16.92,1.05,2.36.68,2,.22,1.55-.31,3.52-.12.54-.21.4-.24.2-.46.05-1.57-.08-4.84,1-1.19.54-.69.46-.3.59-.56-.76-.61-.51-.52-.3-.4-.14-.37-.08-.86,0-.81-.17-1.3-1.43-1.57-1.09-.52-.52-.4-.22-.27-.11-1.09-.1-.4-.08-.57-.21-.41-.25-.49-.38-.34-.19-1.69-.69-.35-.33-.25-.31-.26-.55-.08-.26.05-.28.28-.5.06-.28-.06-.28-.45-.77-.09-.3,0-.25.07-.38.42-.51.91-1.75,0-.42-.1-.31L385,428l-.55-1.39.32-.45.39-.44.32-.51.84-2.12-.17-.33-.26-.18-.32-.12-1.05-.08-.65-.13-1.48-.63-1-.24-.59-.05h-.61l-2,.1-.81-.18-.2-.21-.13-.26,0-.32.06-.33.1-.3.29-.54.51-.73.13-.28.1-.33.11-.73.1-.32.18-.24.24-.16.57-.25.25-.24.19-.36L380,415v-.48l0-.41-.37-1.64,0-.43.15-.3.23-.18,1.1-.53.3-.23.28-.34.32-.65.12-.39.05-.2,0-.11-.07-.14-.2-.3.37-1.08.35-1.81.22-.54.24-.35,1-.59,1.24-1.17.75-1,.67-1.34v-1.17l.12-.59.13-.32.17-.25.31-.16.26-.08.29-.14.23-.24.18-.43.24-.75.2-.32.31-.38,2.2-2.24.35-.25.52-.18.41-.08.36-.12.28-.31.87-1.3.69-.4,1.83-.41-.25-.11-.05,0-.09-.1-.22-.36-.05-.13-.11-.7-.3-.54,0-.13-.06-.31.08-.05.15-.05.45-.1.59-.21.31-.25.23-.25.16-.24,1-2,.07-.32v-.35l-.1-.7-.09-.31-.13-.27-.2-.22-.68-.55-.33-.49-.14-.27-.11-.28,0-.29.1-.26.19-.2.65-.57.16-.22.13-.22.18-.39.15-.21.19-.13.31.13.21.19.52.77.21.19.21.16.22.13.38.18.58.22.41.05h.47l.72-.13,1.12-.35.37,0,.46.1.34.13.4.1.45,0,.65,0,1.45-.39.19-.12.13-.13.19-.41.17-.29.19-.2.11-.09.14-.07.21,0h.27l1.17.28.75.09.53.26,1.3,1h1l.29.19,1.86,1.82Z" transform="translate(-216.37 -29.75)"/><path class="cls-1" d="M323.79,185.46l.61.73,1.28,1,.77.45,3.41,1.32,1.85,1,1.1,1,.26.37.7.77,1.51,1.26,1.14.6.83.19,6,.29,1,.31.66.32.75.46,1.49,1.12.81,1,.46.91.93,2.93.69,1.33.91,1,.85.58.55.24.81.27.59,0,.55,0,.86-.2.8-.39,4.24-3,.87-.28.49,0,.61.13.47.25.42.31.66.77.7,1,2.29,2.36.5.38.6.32,1.05.37.64.05.58,0,1.17-.25,2.66-.19,1.89.12,3.56.75,1.58.39,1.81.72.88.53,2,2,.24.31.57,1,.18.41.11.36,0,.37,0,.37-.85,8.38.06,1.09,0,.29-.55,2.35-.13.36-.2.38-1.49,2.22L383,230l-.23.34-.31.26-.4.2-.42.07-.44-.05-.38-.19-.33-.3L378,227.19l-.73-.6-.88-.56-.58-.26-1.11-.31-.72-.12h-.79l-.61.08-.61.19-.39.18-.59.48-.93,1.4-1.45,3.1-.49,1.59,0,.24,0,.22.26.81.2.46.19.62.08,1-.4,6.42.19,1.67.35,1.48.63,1.89,7,15,1,2.95.12,1v.73l-.15.5-.2.43-.26.4-2.76,3.35-.21.45-.18.55-.26,1.47-.26,1.6-.8,2.81-1.42.86-.29.29-.41.51-1,1.67-.22.49-.35.48-.83.59-.78,0-.32-.13-.39-.31-.23-.31-.18-.32-.15-1.17-.45-1.26-.07-.31-.09-.28-.14-.57-.14-.3-.19-.3-.41-.31-.24-.3-.15-.3-.09-.5-.06-.14-.08-.09-.61-.55-.17-.26-.09-.31v-.64l-.05-.3L363,274l-.5-.91-.26-.19h-.38l-.47.27-.26.29-.17.32-.11.66.07,2.13-.17,1.33-.26.63-.21.3-.27.29-.88.21-1.08,0-4-.66-.68-.23-2.46-.52-1-.33-.94-.09-2.45.52-.44-.57-.11-.29-.12-.44-.62-6.62-.15-.68-.15-.45-1.86-2.25-.22-.18-1.29-.76-.57-.25-1.27-.38-1-.46-3.11-.9-.43-.05h-.59l-.55.28-.41.12-.58,0-.77-.2-.35-.27-.19-.32-.1-.3-.17-.27-.53-.54-.2-.23-.12-.22,0-.1,0-.1.1-.21.24-.41.06-.17,0-.27,0-.93-.11-.41-.2-.45-1.17-1.69-.51-1.09-.22-.58-.16-.63-.16-1.22v-1l.12-.75.65-1.61,0-.43,0-.59-.28-.42-.83-.89-.75-1.24-.25-.3-.81-.6-.52-.56-.71-1-.82-1.84-.16-.95-.05-.69.75-1.58.06-.43v-.54l-.23-.4-.31-.35-1.52-1.07-.3-.3-.71-2.19-.36-.74-.29-.42-.38-.4-.48-.36-.24-.28-.24-.38-.15-.46,0-.65.11-.91.81-2.55L321,224v-1.68l.19-1,.22-.47.22-.32.77-.46.55.09.8.39.84.51.43.2.49.13.49,0,1.55-.16.6,0,.81.1h.48l2-.52.55-.29.49-.45.36-.72.2-.55.25-.91.18-.44.37-.48.56-.6,2.55-2.17.74-1,0-.93-.75-2.21-.17-.6-.34-.74-.73-1.17-.62-.72-.52-.4-1-.5-1.5-.6-3.71-1-1.17-.32-.81-.45-.45-.43-.71-1-.75-1.82-2.76-5.1-.28-1.25.54-.84.15-.41.05-.64,0-.5-.47-2.81v-.41l.09-.38.18-.5.83-1.2Z" transform="translate(-216.37 -29.75)"/><path class="cls-1" d="M372.08,280.7l.13,1.15.41.85,1.29,1.92.21.54.12.49.43,5.13.06.25.06.15.16.15.14.09.25.11.27.1.28.14.29.26.3.38.57,1.1.11.3.1.61,0,.36,0,.37-.06.33,0,.45.05.52.21,1,.18.51.22.37.21.19.75.51.43.4.19.22,1.36,2.69.34.41.39.28,1,0,.7-.15.72-.35.29-.18,3.5-2.91.29-.15.79-.12.64-.17,1.34-.51.6-.33.4-.31.62-1,.88-.92.21-.31.44-1.13.27-.54.68-1,.15-.25.33-.9.18-.35.23-.38.7-.86,1.76-2.71,1-1.21,1.42-1.42.69-.51,1.48-.69.3-.18,2.53-2.15.45-.3,2.06-.83L409,280l.65-.08,2.66.21.35.07.31.11.49.31.21.2.2.21.16.24.13.27.2.61.14.63,0,.32v.28l-.09.34-.16.28-.53.4-1.64.84-.28.17-.19.22-.12.28-.09.32-.14,2.89-.22,1-.76,1.65-.47.76-.13.29-.09.31-.05.35,0,.35.31,1.27,0,.36-.05.74-.31,1.34-.82,2.47-.3,1.28,0,.25v.24l.09.38.44,1.13.43.7.5.58,3.8,5.62-6.52,3.07L401,314.35l-.24,0-3.38-.53h-.53l-.42.07-5.54,2.66-.84.27-2.27.49-1.84.17-3.53-.17-2.12.25-.5.11-.73.26-.45.23-.91.6-.62.56-.29.52-.28.71-.24,1.38-.05.77,0,.64,1.06,5.31.65,1.54-.27.47-.8.56-4,1.81-1.2-.89-1.37-.53-5.62-.41-.25,0-.27-.14-.2-.15-.35-.64-.25-.42-.34-.41-.22-.19-.5-.33-1.14-.5-1.2-.17-3.52,0-1.63.36-.33.19-.33.29-1.89,2.65-.71.6-2,1.29-.54,0-.18,0-1.1-.69-.22-.61-.12-.68-.15-.34-.28-.26-.64-.19h-.43l-.38,0-.33,0-.3-.15-.3-.36-.15-.28-.14-1-.08-1.59.16-1.44.09-.32.52-1.13.08-.27,0-.26-.13-.28-.34-.25-.36-.12-.37-.1-.3-.1-.26-.15-.45-.38-.18-.31-.15-.4-.18-1.11,0-1.78-.37-1.19-.93-2.17-.65-.93-.15-.33,0-.27v-.34l.25-.5.4-.61,2.21-2.65.39-1,0-1.51,2.93-6.79.3-.44L349,298l.48-.34.22-.26.18-.31.09-.95-.46-.51-.76-.56-.85-.43-1.46-.49-.66-.39-.36-.62-.25-.09-.1-.17-.06-.21-.12-.2-.18-.1-1.54-.45-.38-.18-.33-.27-.94-1.38-1.08-.92-.2-.41-1.41-.41-.39-.23-1.61-1.54-.49-.64-.17-.46.08-.35.14-.34,0-.45-.18-.37-.86-1.17-.31-.3-.74-.42-.31-.25-.16-.36,0-1.44-.05-.26-.3-.72-.15-1-.09-.32-.15-.32,1.82-.09,2.69,0,.67-.1.5-.15.42-.26,1.38-.47.5,0,.32,0,.11.1.17.21.3.75.22,1.36.16.35.24.25.35,0,.39-.09.46,0,1.22.36.44,0,.32-.18.53-.76.3-.65,2.45-.52.94.09,1,.33,2.46.52.68.23,4,.66,1.08,0,.88-.21.27-.29.21-.3.26-.63.17-1.33-.07-2.13.11-.66.17-.32.26-.29.47-.27h.38l.26.19.5.91.11.31.05.3v.64l.09.31.17.26.61.55.08.09.06.14.09.5.15.3.24.3.41.31.19.3.14.3.14.57.09.28.07.31.45,1.26.15,1.17.18.32.23.31.39.31.32.13.78,0,.83-.59.35-.48.22-.49,1-1.67.41-.51.29-.29,1.42-.86Z" transform="translate(-216.37 -29.75)"/><path class="cls-1" d="M413.7,310.19l.72.84.32.5.66,1.4,1.13,3.07.18,1-.11,1.12v1l.45,1.34,1.4,2.5.36.85.05.73-.39,4.31,0,.44.1.46.9,2.3.25.43.53,1.21.37,1.4.07.14.15.16.32.18,2.09.78.42.23.32.28.26.34.18.37,0,.37-.18.3-.35.18-1.29.43-1.29.72-.49.37-1.21,1.26-.64.55-1.65,1.71-1.55,1.32-1.23.68-5.11.09-2.77-.79-1.17-.57-.44-.3L403,342.18l-1.53-.92-1.12-.53-.33-.11-.39-.05-.53,0-.5.15-.65.36-.33.27-.46.48-.39.21-4.48,1.12-1,.47-1,.17-2.83.05-2.49.65-6.45,2.06-6.93.13-.19,0-.17-.07-.2-.14-.19-.19-.31-.5-.17-.22-.29-.06-.36.16-1.93,1.48-.77.29-.72.18-.68,0-1.2-.2-.28-.11-.23-.06-.15-.06-.16,0h-.15l-.13.35-.06.67.11,1.57.19,1.08,0,.46-.25,1.12-3.73.6-.71,0-1.64-.17.05-.39,0-.42-.29-.74-.41-.41-1.38-.86-.18-.23-.07-.28-.07-.39.09-1.64-.16-2.56-.43-.69-.86-1-.6-.92-.33-1.87-.16-.44-.23-.52-.8-1.38-.23-.51-.52-2.3-.24-.57-.74-1.21,2-1.29.71-.6,1.89-2.65.33-.29.33-.19,1.63-.36,3.52,0,1.2.17,1.14.5.5.33.22.19.34.41.25.42.35.64.2.15.27.14.25,0,5.62.41,1.37.53,1.2.89,4-1.81.8-.56.27-.47-.65-1.54-1.06-5.31,0-.64.05-.77.24-1.38.28-.71.29-.52.62-.56.91-.6.45-.23.73-.26.5-.11,2.12-.25,3.53.17,1.84-.17,2.27-.49.84-.27,5.54-2.66.42-.07h.53l3.38.53.24,0,6.14-1.09Z" transform="translate(-216.37 -29.75)"/><path class="cls-1" d="M445.67,359.55l-.24.86-1.28,2.83-1.68,2.48-2.7,2.2-1,.62-.21.19-.13.24.05.32.21.16.25.05.66,0,.34,0,.31.09,1.13.49.87.22.26.13.51.31.78.62.14.16.13.23.07.29,0,.3v.52l-.42,2.53-.09.25-2.8,4.19-.11.28-.13.63V381l.09,1.28,0,.64-.13.65-.2.62-.55,1.1-.16.23-.39.43-.23.17-.25.15-1,.38-3.39.94-1.05.14-2.92,0-1.22.13-.42,0-.24-.12-.11-.09-.44-.22-.47-.14-.26,0-.21,0-.27.13-.38.23-.72.73-.43.26-.51.17-.28,0-.23,0-1.24-.37-.31-.14-.24-.17-.42-.41-.46-.36-.57-.66-.21-.14-.3-.15-1-.35-.22-.12-.1-.1-.08-.12,0-.12-.14-.51-.17-.43-.13-.19-.53-.6-1.51-1.2-1.86-1.82-.29-.19h-1l-1.3-1-.53-.26-.75-.09-1.17-.28h-.27l-.21,0-.14.07-.11.09-.19.2-.17.29-.19.41-.13.13-.19.12-1.45.39-.65,0-.45,0-.4-.1-.34-.13-.46-.1-.37,0-1.12.35-.72.13h-.47l-.41-.05-.58-.22-.38-.18-.22-.13-.21-.16-.21-.19-.52-.77-.21-.19-.31-.13-.19.13-.15.21-.18.39-.13.22-.16.22-.65.57-.19.2-.1.26,0,.29.11.28.14.27.33.49.68.55.2.22.13.27.09.31.1.7v.35l-.07.32-1,2-.16.24-.23.25-.31.25-.59.21-.45.1-.15.05-.08.05.06.31,0,.13.3.54.11.7.05.13.22.36.09.1.05,0,.25.11-1.83.41-.69.4-.87,1.3-.28.31-.36.12-.41.08-.52.18-.35.25-2.2,2.24-.31.38-.2.32-.24.75-.18.43-.23.24-.29.14-.26.08-.31.16-.17.25-.13.32-.12.59v.31l-1.62-1.23-1.08-.56-.24-.17-.15-.35,0-.5.22-.92.44-1,.16-.63.25-2.61-.35-1.09-.38-.45-2.06-4.4-.35-.54-.08-.58.54-1.06-.16-.52-.15-.24-1.39-1.15-2.24-.84-.78-.48-.23-.18-.26-.16-2.32-1-.36-.08-.6.05-.4.09-1.39.64-.51.12-.29,0-.41-.35-.28-.35-1.09-2.6-1-.78-.56-.37-.23-.2-.17-.28-.2-.89-.22-.41-1.3-1.27-.17-.29-.12-.45-.05-1.18-.25-1.32v-1.32l-.06-.38-.17-.27-.3-.23-.64-.19-.36.06-.47.32h-.22l-.33-.39-.27-.28-.72-.38-.33-.25-.25-.46-.46-.61-.95-3-.09-.63-.38-.62-1.42-1.42-.28-1.28-.23-3,.15-2,1.64.17.71,0,3.73-.6.25-1.12,0-.46-.19-1.08-.11-1.57.06-.67.13-.35h.15l.16,0,.15.06.23.06.28.11,1.2.2.68,0,.72-.18.77-.29,1.93-1.48.36-.16.29.06.17.22.31.5.19.19.2.14.17.07.19,0,6.93-.13,6.45-2.06,2.49-.65,2.83-.05,1-.17,1-.47,4.48-1.12.39-.21.46-.48.33-.27.65-.36.5-.15.53,0,.39.05.33.11,1.12.53,1.53.92,2.11,1.74.44.3,1.17.57,2.77.79,5.11-.09.53,2.8.3,1,.16.38.78,1.21.42.27.55.19.85.07,1.18-.31.57-.29.42-.29.43-.2.52-.1,1.67.09.63-.06.47-.1.53-.32,1.55-.42.45,0,.44,0,.91-.14.44-.11.42-.05,1.32.18.87,0,.42-.14.44-.22.39-.3.38-.37,2.18-3.08,1.13-2,.37-.33.43.07.63.29.63.21,1.35.29.32.1.27.14.47.35.43.39,1.08,1.36,1,1.8,1,2.11,0,.19v1.09l-.62,3.9v.29l.07.35.59,1.78.44.85.64.79Z" transform="translate(-216.37 -29.75)"/></svg>